<?plantuml 1.2026.2?><svg xmlns="http://www.w3.org/2000/svg" xmlns:xlink="http://www.w3.org/1999/xlink" contentStyleType="text/css" data-diagram-type="CLASS" height="895px" preserveAspectRatio="none" style="width:1477px;height:895px;background:#FFFFFF;" version="1.1" viewBox="0 0 1477 895" width="1477px" zoomAndPan="magnify"><defs/><g><!--cluster App\\Models--><g class="cluster" data-qualified-name="App..Models" data-source-line="5" id="ent0002"><path d="M340.5,245 L420.8311,245 A3.75,3.75 0 0 1 423.3311,247.5 L430.3311,268.6094 L722.5,268.6094 A2.5,2.5 0 0 1 725,271.1094 L725,885.5 A2.5,2.5 0 0 1 722.5,888 L340.5,888 A2.5,2.5 0 0 1 338,885.5 L338,247.5 A2.5,2.5 0 0 1 340.5,245" fill="none" style="stroke:#000000;stroke-width:1.5;"/><line style="stroke:#000000;stroke-width:1.5;" x1="338" x2="430.3311" y1="268.6094" y2="268.6094"/><text fill="#000000" font-family="sans-serif" font-size="14" font-weight="bold" lengthAdjust="spacing" textLength="79.3311" x="342" y="261.5332">App\Models</text></g><!--cluster App\\Http\\Controllers--><g class="cluster" data-qualified-name="App..Http..Controllers" data-source-line="51" id="ent0008"><path d="M316.5,6 L455.1553,6 A3.75,3.75 0 0 1 457.6553,8.5 L464.6553,29.6094 L1467.5,29.6094 A2.5,2.5 0 0 1 1470,32.1094 L1470,218.5 A2.5,2.5 0 0 1 1467.5,221 L316.5,221 A2.5,2.5 0 0 1 314,218.5 L314,8.5 A2.5,2.5 0 0 1 316.5,6" fill="none" style="stroke:#000000;stroke-width:1.5;"/><line style="stroke:#000000;stroke-width:1.5;" x1="314" x2="464.6553" y1="29.6094" y2="29.6094"/><text fill="#000000" font-family="sans-serif" font-size="14" font-weight="bold" lengthAdjust="spacing" textLength="137.6553" x="318" y="22.5332">App\Http\Controllers</text></g><!--cluster App\\Http\\Requests--><g class="cluster" data-qualified-name="App..Http..Requests" data-source-line="87" id="ent0014"><path d="M783.5,267 L910.5,267 A3.75,3.75 0 0 1 913,269.5 L920,290.6094 L1008.5,290.6094 A2.5,2.5 0 0 1 1011,293.1094 L1011,426.5 A2.5,2.5 0 0 1 1008.5,429 L783.5,429 A2.5,2.5 0 0 1 781,426.5 L781,269.5 A2.5,2.5 0 0 1 783.5,267" fill="none" style="stroke:#000000;stroke-width:1.5;"/><line style="stroke:#000000;stroke-width:1.5;" x1="781" x2="920" y1="290.6094" y2="290.6094"/><text fill="#000000" font-family="sans-serif" font-size="14" font-weight="bold" lengthAdjust="spacing" textLength="126" x="785" y="283.5332">App\Http\Requests</text></g><!--cluster App\\Http\\Middleware--><g class="cluster" data-qualified-name="App..Http..Middleware" data-source-line="96" id="ent0016"><path d="M8.5,58.5 L148.7207,58.5 A3.75,3.75 0 0 1 151.2207,61 L158.2207,82.1094 L287.5,82.1094 A2.5,2.5 0 0 1 290,84.6094 L290,166 A2.5,2.5 0 0 1 287.5,168.5 L8.5,168.5 A2.5,2.5 0 0 1 6,166 L6,61 A2.5,2.5 0 0 1 8.5,58.5" fill="none" style="stroke:#000000;stroke-width:1.5;"/><line style="stroke:#000000;stroke-width:1.5;" x1="6" x2="158.2207" y1="82.1094" y2="82.1094"/><text fill="#000000" font-family="sans-serif" font-size="14" font-weight="bold" lengthAdjust="spacing" textLength="139.2207" x="10" y="75.0332">App\Http\Middleware</text></g><!--class User--><g class="entity" data-qualified-name="App..Models.User" data-source-line="6" id="ent0003"><rect fill="#F1F1F1" height="153.6563" rx="2.5" ry="2.5" style="stroke:#181818;stroke-width:0.5;" width="185.8994" x="354" y="281"/><ellipse cx="427.9204" cy="297" fill="#ADD1B2" rx="11" ry="11" style="stroke:#181818;stroke-width:1;"/><path d="M430.686,292.875 Q430.8423,292.6563 431.0298,292.5469 Q431.2173,292.4375 431.436,292.4375 Q431.811,292.4375 432.0454,292.7031 Q432.2798,292.9531 432.2798,293.5625 L432.2798,295.0156 Q432.2798,295.625 432.0454,295.8906 Q431.811,296.1563 431.436,296.1563 Q431.0923,296.1563 430.8892,295.9531 Q430.686,295.7656 430.5767,295.25 Q430.5298,294.8906 430.3423,294.7031 Q430.0142,294.3281 429.4048,294.1094 Q428.7954,293.8906 428.1704,293.8906 Q427.4048,293.8906 426.7642,294.2188 Q426.1392,294.5469 425.6392,295.2969 Q425.1548,296.0469 425.1548,297.0781 L425.1548,298.1719 Q425.1548,299.4063 426.0454,300.2344 Q426.936,301.0469 428.5298,301.0469 Q429.4673,301.0469 430.1235,300.7969 Q430.5142,300.6406 430.936,300.2031 Q431.2017,299.9375 431.3423,299.8594 Q431.4985,299.7813 431.7017,299.7813 Q432.0298,299.7813 432.2798,300.0469 Q432.5454,300.2969 432.5454,300.6406 Q432.5454,300.9844 432.2017,301.3906 Q431.7017,301.9688 430.9048,302.2969 Q429.8267,302.75 428.5298,302.75 Q427.0142,302.75 425.811,302.125 Q424.8267,301.625 424.1392,300.5625 Q423.4517,299.4844 423.4517,298.2031 L423.4517,297.0469 Q423.4517,295.7188 424.061,294.5781 Q424.686,293.4219 425.7798,292.8125 Q426.8735,292.1875 428.1079,292.1875 Q428.8423,292.1875 429.4829,292.3594 Q430.1392,292.5156 430.686,292.875 Z " fill="#000000"/><text fill="#000000" font-family="sans-serif" font-size="14" lengthAdjust="spacing" textLength="29.5586" x="448.4204" y="302.7285">User</text><line style="stroke:#181818;stroke-width:0.5;" x1="355" x2="538.8994" y1="313" y2="313"/><text fill="#000000" font-family="sans-serif" font-size="14" lengthAdjust="spacing" textLength="60.3203" x="360" y="331.5332">+id: bigint</text><text fill="#000000" font-family="sans-serif" font-size="14" lengthAdjust="spacing" textLength="92.9961" x="360" y="349.1426">+name: string?</text><text fill="#000000" font-family="sans-serif" font-size="14" lengthAdjust="spacing" textLength="112.4443" x="360" y="366.752">+username: string</text><text fill="#000000" font-family="sans-serif" font-size="14" lengthAdjust="spacing" textLength="91.4307" x="360" y="384.3613">+email: string?</text><line style="stroke:#181818;stroke-width:0.5;" x1="355" x2="538.8994" y1="391.4375" y2="391.4375"/><text fill="#000000" font-family="sans-serif" font-size="14" lengthAdjust="spacing" textLength="173.8994" x="360" y="409.9707">+role: enum(admin, visiteur)</text><text fill="#000000" font-family="sans-serif" font-size="14" lengthAdjust="spacing" textLength="101.541" x="360" y="427.5801">+isAdmin(): bool</text></g><!--class Championnat--><g class="entity" data-qualified-name="App..Models.Championnat" data-source-line="15" id="ent0004"><rect fill="#F1F1F1" height="118.4375" rx="2.5" ry="2.5" style="stroke:#181818;stroke-width:0.5;" width="115.2754" x="575.5" y="299"/><ellipse cx="590.5" cy="315" fill="#ADD1B2" rx="11" ry="11" style="stroke:#181818;stroke-width:1;"/><path d="M593.2656,310.875 Q593.4219,310.6563 593.6094,310.5469 Q593.7969,310.4375 594.0156,310.4375 Q594.3906,310.4375 594.625,310.7031 Q594.8594,310.9531 594.8594,311.5625 L594.8594,313.0156 Q594.8594,313.625 594.625,313.8906 Q594.3906,314.1563 594.0156,314.1563 Q593.6719,314.1563 593.4688,313.9531 Q593.2656,313.7656 593.1563,313.25 Q593.1094,312.8906 592.9219,312.7031 Q592.5938,312.3281 591.9844,312.1094 Q591.375,311.8906 590.75,311.8906 Q589.9844,311.8906 589.3438,312.2188 Q588.7188,312.5469 588.2188,313.2969 Q587.7344,314.0469 587.7344,315.0781 L587.7344,316.1719 Q587.7344,317.4063 588.625,318.2344 Q589.5156,319.0469 591.1094,319.0469 Q592.0469,319.0469 592.7031,318.7969 Q593.0938,318.6406 593.5156,318.2031 Q593.7813,317.9375 593.9219,317.8594 Q594.0781,317.7813 594.2813,317.7813 Q594.6094,317.7813 594.8594,318.0469 Q595.125,318.2969 595.125,318.6406 Q595.125,318.9844 594.7813,319.3906 Q594.2813,319.9688 593.4844,320.2969 Q592.4063,320.75 591.1094,320.75 Q589.5938,320.75 588.3906,320.125 Q587.4063,319.625 586.7188,318.5625 Q586.0313,317.4844 586.0313,316.2031 L586.0313,315.0469 Q586.0313,313.7188 586.6406,312.5781 Q587.2656,311.4219 588.3594,310.8125 Q589.4531,310.1875 590.6875,310.1875 Q591.4219,310.1875 592.0625,310.3594 Q592.7188,310.5156 593.2656,310.875 Z " fill="#000000"/><text fill="#000000" font-family="sans-serif" font-size="14" lengthAdjust="spacing" textLength="83.2754" x="604.5" y="320.7285">Championnat</text><line style="stroke:#181818;stroke-width:0.5;" x1="576.5" x2="689.7754" y1="331" y2="331"/><text fill="#000000" font-family="sans-serif" font-size="14" lengthAdjust="spacing" textLength="60.3203" x="581.5" y="349.5332">+id: bigint</text><text fill="#000000" font-family="sans-serif" font-size="14" lengthAdjust="spacing" textLength="77.4238" x="581.5" y="367.1426">+nom: string</text><line style="stroke:#181818;stroke-width:0.5;" x1="576.5" x2="689.7754" y1="374.2188" y2="374.2188"/><text fill="#000000" font-family="sans-serif" font-size="14" lengthAdjust="spacing" textLength="66.541" x="581.5" y="392.752">+equipes()</text><text fill="#000000" font-family="sans-serif" font-size="14" lengthAdjust="spacing" textLength="62.624" x="581.5" y="410.3613">+matchs()</text></g><!--class Equipe--><g class="entity" data-qualified-name="App..Models.Equipe" data-source-line="22" id="ent0005"><rect fill="#F1F1F1" height="153.6563" rx="2.5" ry="2.5" style="stroke:#181818;stroke-width:0.5;" width="160.2715" x="549" y="665.5"/><ellipse cx="603.0894" cy="681.5" fill="#ADD1B2" rx="11" ry="11" style="stroke:#181818;stroke-width:1;"/><path d="M605.855,677.375 Q606.0112,677.1563 606.1987,677.0469 Q606.3862,676.9375 606.605,676.9375 Q606.98,676.9375 607.2144,677.2031 Q607.4487,677.4531 607.4487,678.0625 L607.4487,679.5156 Q607.4487,680.125 607.2144,680.3906 Q606.98,680.6563 606.605,680.6563 Q606.2612,680.6563 606.0581,680.4531 Q605.855,680.2656 605.7456,679.75 Q605.6987,679.3906 605.5112,679.2031 Q605.1831,678.8281 604.5737,678.6094 Q603.9644,678.3906 603.3394,678.3906 Q602.5737,678.3906 601.9331,678.7188 Q601.3081,679.0469 600.8081,679.7969 Q600.3237,680.5469 600.3237,681.5781 L600.3237,682.6719 Q600.3237,683.9063 601.2144,684.7344 Q602.105,685.5469 603.6987,685.5469 Q604.6362,685.5469 605.2925,685.2969 Q605.6831,685.1406 606.105,684.7031 Q606.3706,684.4375 606.5112,684.3594 Q606.6675,684.2813 606.8706,684.2813 Q607.1987,684.2813 607.4487,684.5469 Q607.7144,684.7969 607.7144,685.1406 Q607.7144,685.4844 607.3706,685.8906 Q606.8706,686.4688 606.0737,686.7969 Q604.9956,687.25 603.6987,687.25 Q602.1831,687.25 600.98,686.625 Q599.9956,686.125 599.3081,685.0625 Q598.6206,683.9844 598.6206,682.7031 L598.6206,681.5469 Q598.6206,680.2188 599.23,679.0781 Q599.855,677.9219 600.9487,677.3125 Q602.0425,676.6875 603.2769,676.6875 Q604.0112,676.6875 604.6519,676.8594 Q605.3081,677.0156 605.855,677.375 Z " fill="#000000"/><text fill="#000000" font-family="sans-serif" font-size="14" lengthAdjust="spacing" textLength="43.5928" x="623.5894" y="687.2285">Equipe</text><line style="stroke:#181818;stroke-width:0.5;" x1="550" x2="708.2715" y1="697.5" y2="697.5"/><text fill="#000000" font-family="sans-serif" font-size="14" lengthAdjust="spacing" textLength="60.3203" x="555" y="716.0332">+id: bigint</text><text fill="#000000" font-family="sans-serif" font-size="14" lengthAdjust="spacing" textLength="77.4238" x="555" y="733.6426">+nom: string</text><text fill="#000000" font-family="sans-serif" font-size="14" lengthAdjust="spacing" textLength="148.2715" x="555" y="751.252">+championnat_id: bigint</text><line style="stroke:#181818;stroke-width:0.5;" x1="550" x2="708.2715" y1="758.3281" y2="758.3281"/><text fill="#000000" font-family="sans-serif" font-size="14" lengthAdjust="spacing" textLength="97.665" x="555" y="776.8613">+championnat()</text><text fill="#000000" font-family="sans-serif" font-size="14" lengthAdjust="spacing" textLength="97.6445" x="555" y="794.4707">+homeMatchs()</text><text fill="#000000" font-family="sans-serif" font-size="14" lengthAdjust="spacing" textLength="95.3066" x="555" y="812.0801">+awayMatchs()</text></g><!--class FootballMatch--><g class="entity" data-qualified-name="App..Models.FootballMatch" data-source-line="31" id="ent0006"><rect fill="#F1F1F1" height="259.3125" rx="2.5" ry="2.5" style="stroke:#181818;stroke-width:0.5;" width="160.2715" x="354" y="613"/><ellipse cx="387.1534" cy="629" fill="#ADD1B2" rx="11" ry="11" style="stroke:#181818;stroke-width:1;"/><path d="M389.919,624.875 Q390.0752,624.6563 390.2627,624.5469 Q390.4502,624.4375 390.669,624.4375 Q391.044,624.4375 391.2784,624.7031 Q391.5127,624.9531 391.5127,625.5625 L391.5127,627.0156 Q391.5127,627.625 391.2784,627.8906 Q391.044,628.1563 390.669,628.1563 Q390.3252,628.1563 390.1221,627.9531 Q389.919,627.7656 389.8096,627.25 Q389.7627,626.8906 389.5752,626.7031 Q389.2471,626.3281 388.6377,626.1094 Q388.0284,625.8906 387.4034,625.8906 Q386.6377,625.8906 385.9971,626.2188 Q385.3721,626.5469 384.8721,627.2969 Q384.3877,628.0469 384.3877,629.0781 L384.3877,630.1719 Q384.3877,631.4063 385.2784,632.2344 Q386.169,633.0469 387.7627,633.0469 Q388.7002,633.0469 389.3565,632.7969 Q389.7471,632.6406 390.169,632.2031 Q390.4346,631.9375 390.5752,631.8594 Q390.7315,631.7813 390.9346,631.7813 Q391.2627,631.7813 391.5127,632.0469 Q391.7784,632.2969 391.7784,632.6406 Q391.7784,632.9844 391.4346,633.3906 Q390.9346,633.9688 390.1377,634.2969 Q389.0596,634.75 387.7627,634.75 Q386.2471,634.75 385.044,634.125 Q384.0596,633.625 383.3721,632.5625 Q382.6846,631.4844 382.6846,630.2031 L382.6846,629.0469 Q382.6846,627.7188 383.294,626.5781 Q383.919,625.4219 385.0127,624.8125 Q386.1065,624.1875 387.3409,624.1875 Q388.0752,624.1875 388.7159,624.3594 Q389.3721,624.5156 389.919,624.875 Z " fill="#000000"/><text fill="#000000" font-family="sans-serif" font-size="14" lengthAdjust="spacing" textLength="87.9307" x="405.1875" y="634.7285">FootballMatch</text><line style="stroke:#181818;stroke-width:0.5;" x1="355" x2="513.2715" y1="645" y2="645"/><text fill="#000000" font-family="sans-serif" font-size="14" lengthAdjust="spacing" textLength="60.3203" x="360" y="663.5332">+id: bigint</text><text fill="#000000" font-family="sans-serif" font-size="14" lengthAdjust="spacing" textLength="148.2715" x="360" y="681.1426">+championnat_id: bigint</text><text fill="#000000" font-family="sans-serif" font-size="14" lengthAdjust="spacing" textLength="117.9336" x="360" y="698.752">+equipe1_id: bigint</text><text fill="#000000" font-family="sans-serif" font-size="14" lengthAdjust="spacing" textLength="117.9336" x="360" y="716.3613">+equipe2_id: bigint</text><text fill="#000000" font-family="sans-serif" font-size="14" lengthAdjust="spacing" textLength="102.334" x="360" y="733.9707">+score1: tinyint?</text><text fill="#000000" font-family="sans-serif" font-size="14" lengthAdjust="spacing" textLength="102.334" x="360" y="751.5801">+score2: tinyint?</text><line style="stroke:#181818;stroke-width:0.5;" x1="355" x2="513.2715" y1="758.6563" y2="758.6563"/><text fill="#000000" font-family="sans-serif" font-size="14" lengthAdjust="spacing" textLength="97.665" x="360" y="777.1895">+championnat()</text><text fill="#000000" font-family="sans-serif" font-size="14" lengthAdjust="spacing" textLength="62.6309" x="360" y="794.7988">+maison()</text><text fill="#000000" font-family="sans-serif" font-size="14" lengthAdjust="spacing" textLength="71.9688" x="360" y="812.4082">+exterieur()</text><text fill="#000000" font-family="sans-serif" font-size="14" lengthAdjust="spacing" textLength="67.3271" x="360" y="830.0176">+equipe1()</text><text fill="#000000" font-family="sans-serif" font-size="14" lengthAdjust="spacing" textLength="67.3271" x="360" y="847.627">+equipe2()</text><text fill="#000000" font-family="sans-serif" font-size="14" lengthAdjust="spacing" textLength="111.6514" x="360" y="865.2363">+score(): Attribute</text></g><!--class Fixture--><g class="entity" data-qualified-name="App..Models.Fixture" data-source-line="46" id="ent0007"><rect fill="#F1F1F1" height="57.6094" rx="2.5" ry="2.5" style="stroke:#181818;stroke-width:0.5;" width="116.665" x="591.5" y="495"/><ellipse cx="625.3455" cy="511" fill="#ADD1B2" rx="11" ry="11" style="stroke:#181818;stroke-width:1;"/><path d="M628.1111,506.875 Q628.2674,506.6563 628.4549,506.5469 Q628.6424,506.4375 628.8611,506.4375 Q629.2361,506.4375 629.4705,506.7031 Q629.7049,506.9531 629.7049,507.5625 L629.7049,509.0156 Q629.7049,509.625 629.4705,509.8906 Q629.2361,510.1563 628.8611,510.1563 Q628.5174,510.1563 628.3143,509.9531 Q628.1111,509.7656 628.0018,509.25 Q627.9549,508.8906 627.7674,508.7031 Q627.4393,508.3281 626.8299,508.1094 Q626.2205,507.8906 625.5955,507.8906 Q624.8299,507.8906 624.1893,508.2188 Q623.5643,508.5469 623.0643,509.2969 Q622.5799,510.0469 622.5799,511.0781 L622.5799,512.1719 Q622.5799,513.4063 623.4705,514.2344 Q624.3611,515.0469 625.9549,515.0469 Q626.8924,515.0469 627.5486,514.7969 Q627.9393,514.6406 628.3611,514.2031 Q628.6268,513.9375 628.7674,513.8594 Q628.9236,513.7813 629.1268,513.7813 Q629.4549,513.7813 629.7049,514.0469 Q629.9705,514.2969 629.9705,514.6406 Q629.9705,514.9844 629.6268,515.3906 Q629.1268,515.9688 628.3299,516.2969 Q627.2518,516.75 625.9549,516.75 Q624.4393,516.75 623.2361,516.125 Q622.2518,515.625 621.5643,514.5625 Q620.8768,513.4844 620.8768,512.2031 L620.8768,511.0469 Q620.8768,509.7188 621.4861,508.5781 Q622.1111,507.4219 623.2049,506.8125 Q624.2986,506.1875 625.533,506.1875 Q626.2674,506.1875 626.908,506.3594 Q627.5643,506.5156 628.1111,506.875 Z " fill="#000000"/><text fill="#000000" font-family="sans-serif" font-size="14" lengthAdjust="spacing" textLength="42.7861" x="643.5334" y="516.7285">Fixture</text><line style="stroke:#181818;stroke-width:0.5;" x1="592.5" x2="707.165" y1="527" y2="527"/><text fill="#000000" font-family="sans-serif" font-size="14" lengthAdjust="spacing" textLength="104.665" x="597.5" y="545.5332">+isPlayed(): bool</text></g><!--class AuthController--><g class="entity" data-qualified-name="App..Http..Controllers.AuthController" data-source-line="52" id="ent0009"><rect fill="#F1F1F1" height="92.8281" rx="2.5" ry="2.5" style="stroke:#181818;stroke-width:0.5;" width="129.0996" x="330.5" y="77"/><ellipse cx="348.9247" cy="93" fill="#ADD1B2" rx="11" ry="11" style="stroke:#181818;stroke-width:1;"/><path d="M351.6903,88.875 Q351.8465,88.6563 352.034,88.5469 Q352.2215,88.4375 352.4403,88.4375 Q352.8153,88.4375 353.0497,88.7031 Q353.284,88.9531 353.284,89.5625 L353.284,91.0156 Q353.284,91.625 353.0497,91.8906 Q352.8153,92.1563 352.4403,92.1563 Q352.0965,92.1563 351.8934,91.9531 Q351.6903,91.7656 351.5809,91.25 Q351.534,90.8906 351.3465,90.7031 Q351.0184,90.3281 350.409,90.1094 Q349.7997,89.8906 349.1747,89.8906 Q348.409,89.8906 347.7684,90.2188 Q347.1434,90.5469 346.6434,91.2969 Q346.159,92.0469 346.159,93.0781 L346.159,94.1719 Q346.159,95.4063 347.0497,96.2344 Q347.9403,97.0469 349.534,97.0469 Q350.4715,97.0469 351.1278,96.7969 Q351.5184,96.6406 351.9403,96.2031 Q352.2059,95.9375 352.3465,95.8594 Q352.5028,95.7813 352.7059,95.7813 Q353.034,95.7813 353.284,96.0469 Q353.5497,96.2969 353.5497,96.6406 Q353.5497,96.9844 353.2059,97.3906 Q352.7059,97.9688 351.909,98.2969 Q350.8309,98.75 349.534,98.75 Q348.0184,98.75 346.8153,98.125 Q345.8309,97.625 345.1434,96.5625 Q344.4559,95.4844 344.4559,94.2031 L344.4559,93.0469 Q344.4559,91.7188 345.0653,90.5781 Q345.6903,89.4219 346.784,88.8125 Q347.8778,88.1875 349.1122,88.1875 Q349.8465,88.1875 350.4872,88.3594 Q351.1434,88.5156 351.6903,88.875 Z " fill="#000000"/><text fill="#000000" font-family="sans-serif" font-size="14" lengthAdjust="spacing" textLength="89.4893" x="363.6857" y="98.7285">AuthController</text><line style="stroke:#181818;stroke-width:0.5;" x1="331.5" x2="458.5996" y1="109" y2="109"/><text fill="#000000" font-family="sans-serif" font-size="14" lengthAdjust="spacing" textLength="117.0996" x="336.5" y="127.5332">+showLoginForm()</text><text fill="#000000" font-family="sans-serif" font-size="14" lengthAdjust="spacing" textLength="99.2236" x="336.5" y="145.1426">+login(Request)</text><text fill="#000000" font-family="sans-serif" font-size="14" lengthAdjust="spacing" textLength="107.7891" x="336.5" y="162.752">+logout(Request)</text></g><!--class DashboardController--><g class="entity" data-qualified-name="App..Http..Controllers.DashboardController" data-source-line="58" id="ent0010"><rect fill="#F1F1F1" height="57.6094" rx="2.5" ry="2.5" style="stroke:#181818;stroke-width:0.5;" width="161.1787" x="1081.5" y="94.5"/><ellipse cx="1096.5" cy="110.5" fill="#ADD1B2" rx="11" ry="11" style="stroke:#181818;stroke-width:1;"/><path d="M1099.2656,106.375 Q1099.4219,106.1563 1099.6094,106.0469 Q1099.7969,105.9375 1100.0156,105.9375 Q1100.3906,105.9375 1100.625,106.2031 Q1100.8594,106.4531 1100.8594,107.0625 L1100.8594,108.5156 Q1100.8594,109.125 1100.625,109.3906 Q1100.3906,109.6563 1100.0156,109.6563 Q1099.6719,109.6563 1099.4688,109.4531 Q1099.2656,109.2656 1099.1563,108.75 Q1099.1094,108.3906 1098.9219,108.2031 Q1098.5938,107.8281 1097.9844,107.6094 Q1097.375,107.3906 1096.75,107.3906 Q1095.9844,107.3906 1095.3438,107.7188 Q1094.7188,108.0469 1094.2188,108.7969 Q1093.7344,109.5469 1093.7344,110.5781 L1093.7344,111.6719 Q1093.7344,112.9063 1094.625,113.7344 Q1095.5156,114.5469 1097.1094,114.5469 Q1098.0469,114.5469 1098.7031,114.2969 Q1099.0938,114.1406 1099.5156,113.7031 Q1099.7813,113.4375 1099.9219,113.3594 Q1100.0781,113.2813 1100.2813,113.2813 Q1100.6094,113.2813 1100.8594,113.5469 Q1101.125,113.7969 1101.125,114.1406 Q1101.125,114.4844 1100.7813,114.8906 Q1100.2813,115.4688 1099.4844,115.7969 Q1098.4063,116.25 1097.1094,116.25 Q1095.5938,116.25 1094.3906,115.625 Q1093.4063,115.125 1092.7188,114.0625 Q1092.0313,112.9844 1092.0313,111.7031 L1092.0313,110.5469 Q1092.0313,109.2188 1092.6406,108.0781 Q1093.2656,106.9219 1094.3594,106.3125 Q1095.4531,105.6875 1096.6875,105.6875 Q1097.4219,105.6875 1098.0625,105.8594 Q1098.7188,106.0156 1099.2656,106.375 Z " fill="#000000"/><text fill="#000000" font-family="sans-serif" font-size="14" lengthAdjust="spacing" textLength="129.1787" x="1110.5" y="116.2285">DashboardController</text><line style="stroke:#181818;stroke-width:0.5;" x1="1082.5" x2="1241.6787" y1="126.5" y2="126.5"/><text fill="#000000" font-family="sans-serif" font-size="14" lengthAdjust="spacing" textLength="125.6855" x="1087.5" y="145.0332">+__invoke(Request)</text></g><!--class ChampionnatController--><g class="entity" data-qualified-name="App..Http..Controllers.ChampionnatController" data-source-line="62" id="ent0011"><rect fill="#F1F1F1" height="110.4375" rx="2.5" ry="2.5" style="stroke:#181818;stroke-width:0.5;" width="215.5195" x="495" y="68.5"/><ellipse cx="527.7996" cy="84.5" fill="#ADD1B2" rx="11" ry="11" style="stroke:#181818;stroke-width:1;"/><path d="M530.5652,80.375 Q530.7215,80.1563 530.909,80.0469 Q531.0965,79.9375 531.3152,79.9375 Q531.6902,79.9375 531.9246,80.2031 Q532.159,80.4531 532.159,81.0625 L532.159,82.5156 Q532.159,83.125 531.9246,83.3906 Q531.6902,83.6563 531.3152,83.6563 Q530.9715,83.6563 530.7684,83.4531 Q530.5652,83.2656 530.4559,82.75 Q530.409,82.3906 530.2215,82.2031 Q529.8934,81.8281 529.284,81.6094 Q528.6746,81.3906 528.0496,81.3906 Q527.284,81.3906 526.6434,81.7188 Q526.0184,82.0469 525.5184,82.7969 Q525.034,83.5469 525.034,84.5781 L525.034,85.6719 Q525.034,86.9063 525.9246,87.7344 Q526.8152,88.5469 528.409,88.5469 Q529.3465,88.5469 530.0027,88.2969 Q530.3934,88.1406 530.8152,87.7031 Q531.0809,87.4375 531.2215,87.3594 Q531.3777,87.2813 531.5809,87.2813 Q531.909,87.2813 532.159,87.5469 Q532.4246,87.7969 532.4246,88.1406 Q532.4246,88.4844 532.0809,88.8906 Q531.5809,89.4688 530.784,89.7969 Q529.7059,90.25 528.409,90.25 Q526.8934,90.25 525.6902,89.625 Q524.7059,89.125 524.0184,88.0625 Q523.3309,86.9844 523.3309,85.7031 L523.3309,84.5469 Q523.3309,83.2188 523.9402,82.0781 Q524.5652,80.9219 525.659,80.3125 Q526.7527,79.6875 527.9871,79.6875 Q528.7215,79.6875 529.3621,79.8594 Q530.0184,80.0156 530.5652,80.375 Z " fill="#000000"/><text fill="#000000" font-family="sans-serif" font-size="14" lengthAdjust="spacing" textLength="143.9648" x="545.7551" y="90.2285">ChampionnatController</text><line style="stroke:#181818;stroke-width:0.5;" x1="496" x2="709.5195" y1="100.5" y2="100.5"/><text fill="#000000" font-family="sans-serif" font-size="14" lengthAdjust="spacing" textLength="50.9688" x="501" y="119.0332">+index()</text><text fill="#000000" font-family="sans-serif" font-size="14" lengthAdjust="spacing" textLength="100.7686" x="501" y="136.6426">+store(Request)</text><text fill="#000000" font-family="sans-serif" font-size="14" lengthAdjust="spacing" textLength="203.5195" x="501" y="154.252">+update(Request, Championnat)</text><text fill="#000000" font-family="sans-serif" font-size="14" lengthAdjust="spacing" textLength="146.6855" x="501" y="171.8613">+destroy(Championnat)</text></g><!--class EquipeController--><g class="entity" data-qualified-name="App..Http..Controllers.EquipeController" data-source-line="69" id="ent0012"><rect fill="#F1F1F1" height="110.4375" rx="2.5" ry="2.5" style="stroke:#181818;stroke-width:0.5;" width="175.8369" x="1278" y="68.5"/><ellipse cx="1310.7996" cy="84.5" fill="#ADD1B2" rx="11" ry="11" style="stroke:#181818;stroke-width:1;"/><path d="M1313.5652,80.375 Q1313.7215,80.1563 1313.909,80.0469 Q1314.0965,79.9375 1314.3152,79.9375 Q1314.6902,79.9375 1314.9246,80.2031 Q1315.159,80.4531 1315.159,81.0625 L1315.159,82.5156 Q1315.159,83.125 1314.9246,83.3906 Q1314.6902,83.6563 1314.3152,83.6563 Q1313.9715,83.6563 1313.7684,83.4531 Q1313.5652,83.2656 1313.4559,82.75 Q1313.409,82.3906 1313.2215,82.2031 Q1312.8934,81.8281 1312.284,81.6094 Q1311.6746,81.3906 1311.0496,81.3906 Q1310.284,81.3906 1309.6434,81.7188 Q1309.0184,82.0469 1308.5184,82.7969 Q1308.034,83.5469 1308.034,84.5781 L1308.034,85.6719 Q1308.034,86.9063 1308.9246,87.7344 Q1309.8152,88.5469 1311.409,88.5469 Q1312.3465,88.5469 1313.0027,88.2969 Q1313.3934,88.1406 1313.8152,87.7031 Q1314.0809,87.4375 1314.2215,87.3594 Q1314.3777,87.2813 1314.5809,87.2813 Q1314.909,87.2813 1315.159,87.5469 Q1315.4246,87.7969 1315.4246,88.1406 Q1315.4246,88.4844 1315.0809,88.8906 Q1314.5809,89.4688 1313.784,89.7969 Q1312.7059,90.25 1311.409,90.25 Q1309.8934,90.25 1308.6902,89.625 Q1307.7059,89.125 1307.0184,88.0625 Q1306.3309,86.9844 1306.3309,85.7031 L1306.3309,84.5469 Q1306.3309,83.2188 1306.9402,82.0781 Q1307.5652,80.9219 1308.659,80.3125 Q1309.7527,79.6875 1310.9871,79.6875 Q1311.7215,79.6875 1312.3621,79.8594 Q1313.0184,80.0156 1313.5652,80.375 Z " fill="#000000"/><text fill="#000000" font-family="sans-serif" font-size="14" lengthAdjust="spacing" textLength="104.2822" x="1328.7551" y="90.2285">EquipeController</text><line style="stroke:#181818;stroke-width:0.5;" x1="1279" x2="1452.8369" y1="100.5" y2="100.5"/><text fill="#000000" font-family="sans-serif" font-size="14" lengthAdjust="spacing" textLength="50.9688" x="1284" y="119.0332">+index()</text><text fill="#000000" font-family="sans-serif" font-size="14" lengthAdjust="spacing" textLength="100.7686" x="1284" y="136.6426">+store(Request)</text><text fill="#000000" font-family="sans-serif" font-size="14" lengthAdjust="spacing" textLength="163.8369" x="1284" y="154.252">+update(Request, Equipe)</text><text fill="#000000" font-family="sans-serif" font-size="14" lengthAdjust="spacing" textLength="107.0029" x="1284" y="171.8613">+destroy(Equipe)</text></g><!--class MatchController--><g class="entity" data-qualified-name="App..Http..Controllers.MatchController" data-source-line="76" id="ent0013"><rect fill="#F1F1F1" height="163.2656" rx="2.5" ry="2.5" style="stroke:#181818;stroke-width:0.5;" width="299.5332" x="746" y="42"/><ellipse cx="842.1099" cy="58" fill="#ADD1B2" rx="11" ry="11" style="stroke:#181818;stroke-width:1;"/><path d="M844.8755,53.875 Q845.0317,53.6563 845.2192,53.5469 Q845.4067,53.4375 845.6255,53.4375 Q846.0005,53.4375 846.2349,53.7031 Q846.4692,53.9531 846.4692,54.5625 L846.4692,56.0156 Q846.4692,56.625 846.2349,56.8906 Q846.0005,57.1563 845.6255,57.1563 Q845.2817,57.1563 845.0786,56.9531 Q844.8755,56.7656 844.7661,56.25 Q844.7192,55.8906 844.5317,55.7031 Q844.2036,55.3281 843.5942,55.1094 Q842.9849,54.8906 842.3599,54.8906 Q841.5942,54.8906 840.9536,55.2188 Q840.3286,55.5469 839.8286,56.2969 Q839.3442,57.0469 839.3442,58.0781 L839.3442,59.1719 Q839.3442,60.4063 840.2349,61.2344 Q841.1255,62.0469 842.7192,62.0469 Q843.6567,62.0469 844.313,61.7969 Q844.7036,61.6406 845.1255,61.2031 Q845.3911,60.9375 845.5317,60.8594 Q845.688,60.7813 845.8911,60.7813 Q846.2192,60.7813 846.4692,61.0469 Q846.7349,61.2969 846.7349,61.6406 Q846.7349,61.9844 846.3911,62.3906 Q845.8911,62.9688 845.0942,63.2969 Q844.0161,63.75 842.7192,63.75 Q841.2036,63.75 840.0005,63.125 Q839.0161,62.625 838.3286,61.5625 Q837.6411,60.4844 837.6411,59.2031 L837.6411,58.0469 Q837.6411,56.7188 838.2505,55.5781 Q838.8755,54.4219 839.9692,53.8125 Q841.063,53.1875 842.2974,53.1875 Q843.0317,53.1875 843.6724,53.3594 Q844.3286,53.5156 844.8755,53.875 Z " fill="#000000"/><text fill="#000000" font-family="sans-serif" font-size="14" lengthAdjust="spacing" textLength="98.8135" x="862.6099" y="63.7285">MatchController</text><line style="stroke:#181818;stroke-width:0.5;" x1="747" x2="1044.5332" y1="74" y2="74"/><text fill="#000000" font-family="sans-serif" font-size="14" lengthAdjust="spacing" textLength="103.1133" x="752" y="92.5332">+index(Request)</text><text fill="#000000" font-family="sans-serif" font-size="14" lengthAdjust="spacing" textLength="140.4512" x="752" y="110.1426">+classement(Request)</text><text fill="#000000" font-family="sans-serif" font-size="14" lengthAdjust="spacing" textLength="117.8994" x="752" y="127.752">+generer(Request)</text><text fill="#000000" font-family="sans-serif" font-size="14" lengthAdjust="spacing" textLength="114.7617" x="752" y="145.3613">+simuler(Request)</text><text fill="#000000" font-family="sans-serif" font-size="14" lengthAdjust="spacing" textLength="287.5332" x="752" y="162.9707">+updateScore(UpdateFixtureRequest, Fixture)</text><text fill="#000000" font-family="sans-serif" font-size="14" lengthAdjust="spacing" textLength="100.7686" x="752" y="180.5801">+reset(Request)</text><text fill="#000000" font-family="sans-serif" font-size="14" lengthAdjust="spacing" textLength="201.5234" x="752" y="198.1895">-buildClassement(int): Collection</text></g><!--class UpdateFixtureRequest--><g class="entity" data-qualified-name="App..Http..Requests.UpdateFixtureRequest" data-source-line="88" id="ent0015"><rect fill="#F1F1F1" height="110.4375" rx="2.5" ry="2.5" style="stroke:#181818;stroke-width:0.5;" width="198.3682" x="797" y="303"/><ellipse cx="823.8318" cy="319" fill="#ADD1B2" rx="11" ry="11" style="stroke:#181818;stroke-width:1;"/><path d="M826.5975,314.875 Q826.7537,314.6563 826.9412,314.5469 Q827.1287,314.4375 827.3475,314.4375 Q827.7225,314.4375 827.9568,314.7031 Q828.1912,314.9531 828.1912,315.5625 L828.1912,317.0156 Q828.1912,317.625 827.9568,317.8906 Q827.7225,318.1563 827.3475,318.1563 Q827.0037,318.1563 826.8006,317.9531 Q826.5975,317.7656 826.4881,317.25 Q826.4412,316.8906 826.2537,316.7031 Q825.9256,316.3281 825.3162,316.1094 Q824.7068,315.8906 824.0818,315.8906 Q823.3162,315.8906 822.6756,316.2188 Q822.0506,316.5469 821.5506,317.2969 Q821.0662,318.0469 821.0662,319.0781 L821.0662,320.1719 Q821.0662,321.4063 821.9568,322.2344 Q822.8475,323.0469 824.4412,323.0469 Q825.3787,323.0469 826.035,322.7969 Q826.4256,322.6406 826.8475,322.2031 Q827.1131,321.9375 827.2537,321.8594 Q827.41,321.7813 827.6131,321.7813 Q827.9412,321.7813 828.1912,322.0469 Q828.4568,322.2969 828.4568,322.6406 Q828.4568,322.9844 828.1131,323.3906 Q827.6131,323.9688 826.8162,324.2969 Q825.7381,324.75 824.4412,324.75 Q822.9256,324.75 821.7225,324.125 Q820.7381,323.625 820.0506,322.5625 Q819.3631,321.4844 819.3631,320.2031 L819.3631,319.0469 Q819.3631,317.7188 819.9725,316.5781 Q820.5975,315.4219 821.6912,314.8125 Q822.785,314.1875 824.0193,314.1875 Q824.7537,314.1875 825.3943,314.3594 Q826.0506,314.5156 826.5975,314.875 Z " fill="#000000"/><text fill="#000000" font-family="sans-serif" font-size="14" lengthAdjust="spacing" textLength="140.0752" x="840.4611" y="324.7285">UpdateFixtureRequest</text><line style="stroke:#181818;stroke-width:0.5;" x1="798" x2="994.3682" y1="335" y2="335"/><text fill="#000000" font-family="sans-serif" font-size="14" lengthAdjust="spacing" textLength="109.3408" x="803" y="353.5332">+authorize(): bool</text><text fill="#000000" font-family="sans-serif" font-size="14" lengthAdjust="spacing" textLength="87.5205" x="803" y="371.1426">+rules(): array</text><text fill="#000000" font-family="sans-serif" font-size="14" lengthAdjust="spacing" textLength="186.3682" x="803" y="388.752">+withValidator(Validator): void</text><text fill="#000000" font-family="sans-serif" font-size="14" lengthAdjust="spacing" textLength="120.9824" x="803" y="406.3613">+messages(): array</text></g><!--class EnsureIsAdmin--><g class="entity" data-qualified-name="App..Http..Middleware.EnsureIsAdmin" data-source-line="97" id="ent0017"><rect fill="#F1F1F1" height="57.6094" rx="2.5" ry="2.5" style="stroke:#181818;stroke-width:0.5;" width="250.5264" x="22.5" y="94.5"/><ellipse cx="96.0479" cy="110.5" fill="#ADD1B2" rx="11" ry="11" style="stroke:#181818;stroke-width:1;"/><path d="M98.8135,106.375 Q98.9697,106.1563 99.1572,106.0469 Q99.3447,105.9375 99.5635,105.9375 Q99.9385,105.9375 100.1729,106.2031 Q100.4072,106.4531 100.4072,107.0625 L100.4072,108.5156 Q100.4072,109.125 100.1729,109.3906 Q99.9385,109.6563 99.5635,109.6563 Q99.2197,109.6563 99.0166,109.4531 Q98.8135,109.2656 98.7041,108.75 Q98.6572,108.3906 98.4697,108.2031 Q98.1416,107.8281 97.5322,107.6094 Q96.9229,107.3906 96.2979,107.3906 Q95.5322,107.3906 94.8916,107.7188 Q94.2666,108.0469 93.7666,108.7969 Q93.2822,109.5469 93.2822,110.5781 L93.2822,111.6719 Q93.2822,112.9063 94.1729,113.7344 Q95.0635,114.5469 96.6572,114.5469 Q97.5947,114.5469 98.251,114.2969 Q98.6416,114.1406 99.0635,113.7031 Q99.3291,113.4375 99.4697,113.3594 Q99.626,113.2813 99.8291,113.2813 Q100.1572,113.2813 100.4072,113.5469 Q100.6729,113.7969 100.6729,114.1406 Q100.6729,114.4844 100.3291,114.8906 Q99.8291,115.4688 99.0322,115.7969 Q97.9541,116.25 96.6572,116.25 Q95.1416,116.25 93.9385,115.625 Q92.9541,115.125 92.2666,114.0625 Q91.5791,112.9844 91.5791,111.7031 L91.5791,110.5469 Q91.5791,109.2188 92.1885,108.0781 Q92.8135,106.9219 93.9072,106.3125 Q95.001,105.6875 96.2354,105.6875 Q96.9697,105.6875 97.6104,105.8594 Q98.2666,106.0156 98.8135,106.375 Z " fill="#000000"/><text fill="#000000" font-family="sans-serif" font-size="14" lengthAdjust="spacing" textLength="94.9307" x="116.5479" y="116.2285">EnsureIsAdmin</text><line style="stroke:#181818;stroke-width:0.5;" x1="23.5" x2="272.0264" y1="126.5" y2="126.5"/><text fill="#000000" font-family="sans-serif" font-size="14" lengthAdjust="spacing" textLength="238.5264" x="28.5" y="145.0332">+handle(Request, Closure): Response</text></g><!--link Fixture to FootballMatch--><g class="link" data-entity-1="ent0007" data-entity-2="ent0006" data-link-type="extension" data-source-line="102" id="lnk18"><path codeLine="102" d="M620.75,553.27 C620.75,587.64 620.75,640 620.75,640 C620.75,640 582.7,640 532.01,640" fill="none" id="Fixture-to-FootballMatch" style="stroke:#181818;stroke-width:1;"/><polygon fill="none" points="514.01,640,532.01,646,532.01,634,514.01,640" style="stroke:#181818;stroke-width:1;"/></g><!--reverse link Championnat to Equipe--><g class="link" data-entity-1="ent0004" data-entity-2="ent0005" data-link-type="aggregation" data-source-line="104" id="lnk19"><path codeLine="104" d="M586.17,429.24 C586.17,495.8 586.17,592.1 586.17,665.26" fill="none" id="Championnat-backto-Equipe" style="stroke:#181818;stroke-width:1;"/><polygon fill="none" points="586.17,417.24,582.17,423.24,586.17,429.24,590.17,423.24,586.17,417.24" style="stroke:#181818;stroke-width:1;"/><text fill="#000000" font-family="sans-serif" font-size="13" lengthAdjust="spacing" textLength="52.749" x="533.17" y="555.7451">hasMany</text><text fill="#000000" font-family="sans-serif" font-size="13" lengthAdjust="spacing" textLength="7.23" x="573.0333" y="438.9248">1</text><text fill="#000000" font-family="sans-serif" font-size="13" lengthAdjust="spacing" textLength="19.5127" x="583.0047" y="654.6638">0..*</text></g><!--link Equipe to Championnat--><g class="link" data-entity-1="ent0005" data-entity-2="ent0004" data-link-type="dependency" data-source-line="106" id="lnk21"><path codeLine="106" d="M580.83,665.15 C580.83,591.91 580.83,489.52 580.83,423" fill="none" id="Equipe-to-Championnat" style="stroke:#181818;stroke-width:1;"/><polygon fill="#181818" points="580.83,417,576.83,426,580.83,422,584.83,426,580.83,417" style="stroke:#181818;stroke-width:1;"/><text fill="#000000" font-family="sans-serif" font-size="13" lengthAdjust="spacing" textLength="60.709" x="519.83" y="537.5751">belongsTo</text><text fill="#000000" font-family="sans-serif" font-size="13" lengthAdjust="spacing" textLength="7.23" x="568.9032" y="654.5433">1</text><text fill="#000000" font-family="sans-serif" font-size="13" lengthAdjust="spacing" textLength="7.23" x="566.6944" y="439.074">1</text></g><!--reverse link Championnat to Fixture--><g class="link" data-entity-1="ent0004" data-entity-2="ent0007" data-link-type="aggregation" data-source-line="105" id="lnk20"><path codeLine="105" d="M624.5,429.46 C624.5,455.7 624.5,473.35 624.5,494.7" fill="none" id="Championnat-backto-Fixture" style="stroke:#181818;stroke-width:1;"/><polygon fill="none" points="624.5,417.46,620.5,423.46,624.5,429.46,628.5,423.46,624.5,417.46" style="stroke:#181818;stroke-width:1;"/><text fill="#000000" font-family="sans-serif" font-size="13" lengthAdjust="spacing" textLength="52.749" x="571.5" y="452.5751">hasMany</text><text fill="#000000" font-family="sans-serif" font-size="13" lengthAdjust="spacing" textLength="7.23" x="616.1099" y="438.7502">1</text><text fill="#000000" font-family="sans-serif" font-size="13" lengthAdjust="spacing" textLength="19.5127" x="597.9365" y="484.1169">0..*</text></g><!--link Fixture to Championnat--><g class="link" data-entity-1="ent0007" data-entity-2="ent0004" data-link-type="dependency" data-source-line="107" id="lnk22"><path codeLine="107" d="M657.5,494.7 C657.5,473.3 657.5,449.54 657.5,423.25" fill="none" id="Fixture-to-Championnat" style="stroke:#181818;stroke-width:1;"/><polygon fill="#181818" points="657.5,417.25,653.5,426.25,657.5,422.25,661.5,426.25,657.5,417.25" style="stroke:#181818;stroke-width:1;"/><text fill="#000000" font-family="sans-serif" font-size="13" lengthAdjust="spacing" textLength="60.709" x="658.5" y="452.4751">belongsTo</text><text fill="#000000" font-family="sans-serif" font-size="13" lengthAdjust="spacing" textLength="19.5127" x="638.1552" y="484.1169">0..*</text><text fill="#000000" font-family="sans-serif" font-size="13" lengthAdjust="spacing" textLength="7.23" x="653.0566" y="438.936">1</text></g><!--link Fixture to Equipe--><g class="link" data-entity-1="ent0007" data-entity-2="ent0005" data-link-type="dependency" data-source-line="108" id="lnk23"><path codeLine="108" d="M679.25,553.02 C679.25,581.57 679.25,620.43 679.25,659.33" fill="none" id="Fixture-to-Equipe" style="stroke:#181818;stroke-width:1;"/><polygon fill="#181818" points="679.25,665.33,683.25,656.33,679.25,660.33,675.25,656.33,679.25,665.33" style="stroke:#181818;stroke-width:1;"/><text fill="#000000" font-family="sans-serif" font-size="13" lengthAdjust="spacing" textLength="117.7935" x="561.25" y="605.6651">equipe1_id (maison)</text><text fill="#000000" font-family="sans-serif" font-size="13" lengthAdjust="spacing" textLength="19.5127" x="664.4109" y="574.227">0..*</text><text fill="#000000" font-family="sans-serif" font-size="13" lengthAdjust="spacing" textLength="7.23" x="676.7039" y="654.7405">1</text></g><!--link Fixture to Equipe--><g class="link" data-entity-1="ent0007" data-entity-2="ent0005" data-link-type="dependency" data-source-line="109" id="lnk24"><path codeLine="109" d="M650,553.02 C650,581.57 650,620.43 650,659.33" fill="none" id="Fixture-to-Equipe-1" style="stroke:#181818;stroke-width:1;"/><polygon fill="#181818" points="650,665.33,654,656.33,650,660.33,646,656.33,650,665.33" style="stroke:#181818;stroke-width:1;"/><text fill="#000000" font-family="sans-serif" font-size="13" lengthAdjust="spacing" textLength="126.4644" x="523" y="623.6651">equipe2_id (exterieur)</text><text fill="#000000" font-family="sans-serif" font-size="13" lengthAdjust="spacing" textLength="19.5127" x="629.128" y="574.227">0..*</text><text fill="#000000" font-family="sans-serif" font-size="13" lengthAdjust="spacing" textLength="7.23" x="644.666" y="654.7405">1</text></g><!--link MatchController to Fixture--><g class="link" data-entity-1="ent0013" data-entity-2="ent0007" data-link-type="dependency" data-source-line="111" id="lnk25"><path codeLine="111" d="M745.81,197 C717.47,197 696.5,197 696.5,197 C696.5,197 696.5,408.95 696.5,488.98" fill="none" id="MatchController-to-Fixture" style="stroke:#181818;stroke-width:1;stroke-dasharray:7,7;"/><polygon fill="#181818" points="696.5,494.98,700.5,485.98,696.5,489.98,692.5,485.98,696.5,494.98" style="stroke:#181818;stroke-width:1;"/></g><!--link MatchController to Equipe--><g class="link" data-entity-1="ent0013" data-entity-2="ent0005" data-link-type="dependency" data-source-line="112" id="lnk26"><path codeLine="112" d="M771.5,205.13 C771.5,365.02 771.5,704 771.5,704 C771.5,704 747.73,704 715.41,704" fill="none" id="MatchController-to-Equipe" style="stroke:#181818;stroke-width:1;stroke-dasharray:7,7;"/><polygon fill="#181818" points="709.41,704,718.41,708,714.41,704,718.41,700,709.41,704" style="stroke:#181818;stroke-width:1;"/></g><!--link MatchController to Championnat--><g class="link" data-entity-1="ent0013" data-entity-2="ent0004" data-link-type="dependency" data-source-line="113" id="lnk27"><path codeLine="113" d="M745.68,188 C686.77,188 633,188 633,188 C633,188 633,243.52 633,292.54" fill="none" id="MatchController-to-Championnat" style="stroke:#181818;stroke-width:1;stroke-dasharray:7,7;"/><polygon fill="#181818" points="633,298.54,637,289.54,633,293.54,629,289.54,633,298.54" style="stroke:#181818;stroke-width:1;"/></g><!--link MatchController to UpdateFixtureRequest--><g class="link" data-entity-1="ent0013" data-entity-2="ent0015" data-link-type="dependency" data-source-line="114" id="lnk28"><path codeLine="114" d="M896,205.19 C896,237.44 896,267.66 896,296.74" fill="none" id="MatchController-to-UpdateFixtureRequest" style="stroke:#181818;stroke-width:1;stroke-dasharray:7,7;"/><polygon fill="#181818" points="896,302.74,900,293.74,896,297.74,892,293.74,896,302.74" style="stroke:#181818;stroke-width:1;"/></g><!--link ChampionnatController to Championnat--><g class="link" data-entity-1="ent0011" data-entity-2="ent0004" data-link-type="dependency" data-source-line="115" id="lnk29"><path codeLine="115" d="M604.25,178.78 C604.25,214.93 604.25,256.12 604.25,293" fill="none" id="ChampionnatController-to-Championnat" style="stroke:#181818;stroke-width:1;stroke-dasharray:7,7;"/><polygon fill="#181818" points="604.25,299,608.25,290,604.25,294,600.25,290,604.25,299" style="stroke:#181818;stroke-width:1;"/></g><!--link EquipeController to Equipe--><g class="link" data-entity-1="ent0012" data-entity-2="ent0005" data-link-type="dependency" data-source-line="116" id="lnk30"><path codeLine="116" d="M1395.33,178.71 C1395.33,336.98 1395.33,781 1395.33,781 C1395.33,781 911.72,781 715.2,781" fill="none" id="EquipeController-to-Equipe" style="stroke:#181818;stroke-width:1;stroke-dasharray:7,7;"/><polygon fill="#181818" points="709.2,781,718.2,785,714.2,781,718.2,777,709.2,781" style="stroke:#181818;stroke-width:1;"/></g><!--link EquipeController to Championnat--><g class="link" data-entity-1="ent0012" data-entity-2="ent0004" data-link-type="dependency" data-source-line="117" id="lnk31"><path codeLine="117" d="M1336.67,178.7 C1336.67,210.01 1336.67,243 1336.67,243 C1336.67,243 661.75,243 661.75,243 C661.75,243 661.75,264.64 661.75,292.82" fill="none" id="EquipeController-to-Championnat" style="stroke:#181818;stroke-width:1;stroke-dasharray:7,7;"/><polygon fill="#181818" points="661.75,298.82,665.75,289.82,661.75,293.82,657.75,289.82,661.75,298.82" style="stroke:#181818;stroke-width:1;"/></g><!--link AuthController to User--><g class="link" data-entity-1="ent0009" data-entity-2="ent0003" data-link-type="dependency" data-source-line="118" id="lnk32"><path codeLine="118" d="M406.75,170.11 C406.75,201.63 406.75,238.01 406.75,274.55" fill="none" id="AuthController-to-User" style="stroke:#181818;stroke-width:1;stroke-dasharray:7,7;"/><polygon fill="#181818" points="406.75,280.55,410.75,271.55,406.75,275.55,402.75,271.55,406.75,280.55" style="stroke:#181818;stroke-width:1;"/></g><!--link EnsureIsAdmin to User--><g class="link" data-entity-1="ent0017" data-entity-2="ent0003" data-link-type="dependency" data-source-line="119" id="lnk33"><path codeLine="119" d="M148,152.73 C148,215.59 148,358 148,358 C148,358 259.89,358 347.62,358" fill="none" id="EnsureIsAdmin-to-User" style="stroke:#181818;stroke-width:1;stroke-dasharray:7,7;"/><polygon fill="#181818" points="353.62,358,344.62,354,348.62,358,344.62,362,353.62,358" style="stroke:#181818;stroke-width:1;"/></g><!--link UpdateFixtureRequest to Fixture--><g class="link" data-entity-1="ent0015" data-entity-2="ent0007" data-link-type="dependency" data-source-line="120" id="lnk34"><path codeLine="120" d="M796.98,358 C749.38,358 702.5,358 702.5,358 C702.5,358 702.5,441.05 702.5,488.7" fill="none" id="UpdateFixtureRequest-to-Fixture" style="stroke:#181818;stroke-width:1;stroke-dasharray:7,7;"/><polygon fill="#181818" points="702.5,494.7,706.5,485.7,702.5,489.7,698.5,485.7,702.5,494.7" style="stroke:#181818;stroke-width:1;"/></g><!--link UpdateFixtureRequest to Equipe--><g class="link" data-entity-1="ent0015" data-entity-2="ent0005" data-link-type="dependency" data-source-line="121" id="lnk35"><path codeLine="121" d="M896,413.16 C896,519.62 896,743 896,743 C896,743 793.76,743 715.11,743" fill="none" id="UpdateFixtureRequest-to-Equipe" style="stroke:#181818;stroke-width:1;stroke-dasharray:7,7;"/><polygon fill="#181818" points="709.11,743,718.11,747,714.11,743,718.11,739,709.11,743" style="stroke:#181818;stroke-width:1;"/></g><?plantuml-src hLPDRzim3BtxLmWv9LiTj3dcq2B8Mgp00WpjjbE1Gh69MAWaUfBSrDlwtqT_ouvT5CCkIVJuI3v9JqJiaz0fDronI79hDyuPiSySt4QexyKlOEU1RIbIQ71v2WoDIp18H0mCLEfofa3jmTWWI7dqn0_0PfiqVNZOOGpIpjZlW5NrsNSBfbmozb74QxON1w5TjTPSmPfPKg0FLnMK4Ts7AnGK5tB0D2Y91JfJSnuheS_Oix32GMOMTJUxAV3vWfeYIW9VWrRMDk4g5QWrTvFgK0rK_Cn42dPUrrVSHKcryWfVbwHtrumw7Oz3iXThUYQeODVr9OGVURuRLNA3wFPSoZ8w9UYj_jL-BoRmrGbk8pHmiMPEw9p0AmzT3T6HlT4TMzJD2buS646tsGALclvorIpBBiLLjuOU78PuSPdfxiL-bJo7k6UErw6RFpj7drlKZimcoUw-iJUPIxfGKzWcUFo2T2OtQ5GZJXR0_8uaWtKTXfdpGK_j9swJFN8JdpPuV1Jw6PzW8jFpzMckq36yj2VcYXFhYyhIcBiMFFEhrOoOS8FvV10vUG3_eNbLQD2t0xsMfSEdElQRb0cWGBj1u00Q39W1QeNAv0bQARqlBVUz_5tRgzLUhsk-0Gk3Vk4-4pBUTcheQP0NjyK68aS7-vOZwqhzEJkYepa8JbP5GyFTitiXYxPc2uWRm_CAEmgN_E1IK34qy_ONaPvHnFL31Mj9KYzrKkjEnB648pVWgxtMbcJULXEwaPbmJLJFVH8B5dMv0vkYjj0qQbvp6FwvxC-v8F0d--nYnZ0CsUnykVmmQsRpcYNSxhZEt-8sBJfodLtmml2o_FRpwMH1eZxORzZggslz8xsLsmrYDg-cvEATEQiofvsbYo0OlfNbyhBPwsYiAZWQyhOp6X-pP30-e8RbJeQ89sKqvYSF9dCfXVvM17tJjV3eo_6FPP9G2_eB?></g></svg>