<?plantuml 1.2026.2?><svg xmlns="http://www.w3.org/2000/svg" xmlns:xlink="http://www.w3.org/1999/xlink" contentStyleType="text/css" data-diagram-type="CLASS" height="753px" preserveAspectRatio="none" style="width:678px;height:753px;background:#FFFFFF;" version="1.1" viewBox="0 0 678 753" width="678px" zoomAndPan="magnify"><defs/><g><!--class users--><g class="entity" data-qualified-name="users" data-source-line="5" id="ent0002"><rect fill="#F1F1F1" height="224.0938" rx="2.5" ry="2.5" style="stroke:#181818;stroke-width:0.5;" width="201.8613" x="7" y="7"/><ellipse cx="86.5635" cy="23" fill="#ADD1B2" rx="11" ry="11" style="stroke:#181818;stroke-width:1;"/><path d="M85.4229,23.7969 L85.4229,26.2969 L89.751,26.2969 L89.751,25.375 Q89.751,24.7656 89.9854,24.5 Q90.2354,24.2344 90.6104,24.2344 Q90.9854,24.2344 91.2197,24.5 Q91.4541,24.7656 91.4541,25.375 L91.4541,28 L83.4541,28 Q82.8291,28 82.5635,27.7656 Q82.3135,27.5313 82.3135,27.1406 Q82.3135,26.7656 82.5791,26.5313 Q82.8447,26.2969 83.4541,26.2969 L83.7197,26.2969 L83.7197,19.6406 L83.4541,19.6406 Q82.8291,19.6406 82.5635,19.4063 Q82.3135,19.1719 82.3135,18.7813 Q82.3135,18.4063 82.5635,18.1719 Q82.8291,17.9375 83.4541,17.9375 L91.0791,17.9375 L91.0791,20.5313 Q91.0791,21.1406 90.8447,21.4063 Q90.626,21.6563 90.2354,21.6563 Q89.8604,21.6563 89.626,21.4063 Q89.3916,21.1406 89.3916,20.5313 L89.3916,19.6406 L85.4229,19.6406 L85.4229,22.0938 L86.9072,22.0938 Q86.9072,21.4375 87.0322,21.25 Q87.2979,20.8438 87.7666,20.8438 Q88.1416,20.8438 88.376,21.1094 Q88.6104,21.3594 88.6104,21.9688 L88.6104,23.9375 Q88.6104,24.4844 88.4854,24.6719 Q88.2197,25.0625 87.7666,25.0625 Q87.2979,25.0625 87.0322,24.6563 Q86.9072,24.4688 86.9072,23.7969 L85.4229,23.7969 Z " fill="#000000"/><text fill="#000000" font-family="sans-serif" font-size="14" lengthAdjust="spacing" textLength="34.2344" x="107.0635" y="28.7285">users</text><line style="stroke:#181818;stroke-width:0.5;" x1="8" x2="207.8613" y1="39" y2="39"/><g data-visibility-modifier="IE_MANDATORY"><ellipse cx="18" cy="53.3047" fill="#000000" rx="3" ry="3" style="stroke:#000000;stroke-width:1;"/></g><text fill="#000000" font-family="sans-serif" font-size="14" lengthAdjust="spacing" textLength="94.1719" x="27" y="57.5332">id : bigint &#171;PK&#187;</text><line style="stroke:#181818;stroke-width:1;" x1="8" x2="207.8613" y1="64.6094" y2="64.6094"/><text fill="#000000" font-family="sans-serif" font-size="14" lengthAdjust="spacing" textLength="88.71" x="13" y="83.1426">name : string?</text><text fill="#000000" font-family="sans-serif" font-size="14" lengthAdjust="spacing" textLength="148.6201" x="13" y="100.752">username : string &#171;UQ&#187;</text><text fill="#000000" font-family="sans-serif" font-size="14" lengthAdjust="spacing" textLength="127.6064" x="13" y="118.3613">email : string? &#171;UQ&#187;</text><text fill="#000000" font-family="sans-serif" font-size="14" lengthAdjust="spacing" textLength="169.6133" x="13" y="135.9707">role : enum(admin, visiteur)</text><text fill="#000000" font-family="sans-serif" font-size="14" lengthAdjust="spacing" textLength="105.8203" x="13" y="153.5801">password : string</text><text fill="#000000" font-family="sans-serif" font-size="14" lengthAdjust="spacing" textLength="159.5166" x="13" y="171.1895">remember_token : string?</text><text fill="#000000" font-family="sans-serif" font-size="14" lengthAdjust="spacing" textLength="189.8613" x="13" y="188.7988">email_verified_at : timestamp?</text><text fill="#000000" font-family="sans-serif" font-size="14" lengthAdjust="spacing" textLength="142.3994" x="13" y="206.4082">created_at : timestamp</text><text fill="#000000" font-family="sans-serif" font-size="14" lengthAdjust="spacing" textLength="146.3096" x="13" y="224.0176">updated_at : timestamp</text></g><!--class championnats--><g class="entity" data-qualified-name="championnats" data-source-line="19" id="ent0003"><rect fill="#F1F1F1" height="118.4375" rx="2.5" ry="2.5" style="stroke:#181818;stroke-width:0.5;" width="158.3096" x="299" y="60"/><ellipse cx="331.615" cy="76" fill="#ADD1B2" rx="11" ry="11" style="stroke:#181818;stroke-width:1;"/><path d="M330.4744,76.7969 L330.4744,79.2969 L334.8025,79.2969 L334.8025,78.375 Q334.8025,77.7656 335.0369,77.5 Q335.2869,77.2344 335.6619,77.2344 Q336.0369,77.2344 336.2713,77.5 Q336.5057,77.7656 336.5057,78.375 L336.5057,81 L328.5057,81 Q327.8807,81 327.615,80.7656 Q327.365,80.5313 327.365,80.1406 Q327.365,79.7656 327.6307,79.5313 Q327.8963,79.2969 328.5057,79.2969 L328.7713,79.2969 L328.7713,72.6406 L328.5057,72.6406 Q327.8807,72.6406 327.615,72.4063 Q327.365,72.1719 327.365,71.7813 Q327.365,71.4063 327.615,71.1719 Q327.8807,70.9375 328.5057,70.9375 L336.1307,70.9375 L336.1307,73.5313 Q336.1307,74.1406 335.8963,74.4063 Q335.6775,74.6563 335.2869,74.6563 Q334.9119,74.6563 334.6775,74.4063 Q334.4432,74.1406 334.4432,73.5313 L334.4432,72.6406 L330.4744,72.6406 L330.4744,75.0938 L331.9588,75.0938 Q331.9588,74.4375 332.0838,74.25 Q332.3494,73.8438 332.8182,73.8438 Q333.1932,73.8438 333.4275,74.1094 Q333.6619,74.3594 333.6619,74.9688 L333.6619,76.9375 Q333.6619,77.4844 333.5369,77.6719 Q333.2713,78.0625 332.8182,78.0625 Q332.3494,78.0625 332.0838,77.6563 Q331.9588,77.4688 331.9588,76.7969 L330.4744,76.7969 Z " fill="#000000"/><text fill="#000000" font-family="sans-serif" font-size="14" lengthAdjust="spacing" textLength="87.165" x="349.5295" y="81.7285">championnats</text><line style="stroke:#181818;stroke-width:0.5;" x1="300" x2="456.3096" y1="92" y2="92"/><g data-visibility-modifier="IE_MANDATORY"><ellipse cx="310" cy="106.3047" fill="#000000" rx="3" ry="3" style="stroke:#000000;stroke-width:1;"/></g><text fill="#000000" font-family="sans-serif" font-size="14" lengthAdjust="spacing" textLength="94.1719" x="319" y="110.5332">id : bigint &#171;PK&#187;</text><line style="stroke:#181818;stroke-width:1;" x1="300" x2="456.3096" y1="117.6094" y2="117.6094"/><text fill="#000000" font-family="sans-serif" font-size="14" lengthAdjust="spacing" textLength="73.1377" x="305" y="136.1426">nom : string</text><text fill="#000000" font-family="sans-serif" font-size="14" lengthAdjust="spacing" textLength="142.3994" x="305" y="153.752">created_at : timestamp</text><text fill="#000000" font-family="sans-serif" font-size="14" lengthAdjust="spacing" textLength="146.3096" x="305" y="171.3613">updated_at : timestamp</text></g><!--class equipes--><g class="entity" data-qualified-name="equipes" data-source-line="27" id="ent0004"><rect fill="#F1F1F1" height="136.0469" rx="2.5" ry="2.5" style="stroke:#181818;stroke-width:0.5;" width="193.3369" x="281.5" y="300"/><ellipse cx="349.3979" cy="316" fill="#ADD1B2" rx="11" ry="11" style="stroke:#181818;stroke-width:1;"/><path d="M348.2573,316.7969 L348.2573,319.2969 L352.5854,319.2969 L352.5854,318.375 Q352.5854,317.7656 352.8198,317.5 Q353.0698,317.2344 353.4448,317.2344 Q353.8198,317.2344 354.0542,317.5 Q354.2886,317.7656 354.2886,318.375 L354.2886,321 L346.2886,321 Q345.6636,321 345.3979,320.7656 Q345.1479,320.5313 345.1479,320.1406 Q345.1479,319.7656 345.4136,319.5313 Q345.6792,319.2969 346.2886,319.2969 L346.5542,319.2969 L346.5542,312.6406 L346.2886,312.6406 Q345.6636,312.6406 345.3979,312.4063 Q345.1479,312.1719 345.1479,311.7813 Q345.1479,311.4063 345.3979,311.1719 Q345.6636,310.9375 346.2886,310.9375 L353.9136,310.9375 L353.9136,313.5313 Q353.9136,314.1406 353.6792,314.4063 Q353.4604,314.6563 353.0698,314.6563 Q352.6948,314.6563 352.4604,314.4063 Q352.2261,314.1406 352.2261,313.5313 L352.2261,312.6406 L348.2573,312.6406 L348.2573,315.0938 L349.7417,315.0938 Q349.7417,314.4375 349.8667,314.25 Q350.1323,313.8438 350.6011,313.8438 Q350.9761,313.8438 351.2104,314.1094 Q351.4448,314.3594 351.4448,314.9688 L351.4448,316.9375 Q351.4448,317.4844 351.3198,317.6719 Q351.0542,318.0625 350.6011,318.0625 Q350.1323,318.0625 349.8667,317.6563 Q349.7417,317.4688 349.7417,316.7969 L348.2573,316.7969 Z " fill="#000000"/><text fill="#000000" font-family="sans-serif" font-size="14" lengthAdjust="spacing" textLength="49.041" x="369.8979" y="321.7285">equipes</text><line style="stroke:#181818;stroke-width:0.5;" x1="282.5" x2="473.8369" y1="332" y2="332"/><g data-visibility-modifier="IE_MANDATORY"><ellipse cx="292.5" cy="346.3047" fill="#000000" rx="3" ry="3" style="stroke:#000000;stroke-width:1;"/></g><text fill="#000000" font-family="sans-serif" font-size="14" lengthAdjust="spacing" textLength="94.1719" x="301.5" y="350.5332">id : bigint &#171;PK&#187;</text><line style="stroke:#181818;stroke-width:1;" x1="282.5" x2="473.8369" y1="357.6094" y2="357.6094"/><text fill="#000000" font-family="sans-serif" font-size="14" lengthAdjust="spacing" textLength="73.1377" x="287.5" y="376.1426">nom : string</text><text fill="#000000" font-family="sans-serif" font-size="14" lengthAdjust="spacing" textLength="181.3369" x="287.5" y="393.752">championnat_id : bigint &#171;FK&#187;</text><text fill="#000000" font-family="sans-serif" font-size="14" lengthAdjust="spacing" textLength="142.3994" x="287.5" y="411.3613">created_at : timestamp</text><text fill="#000000" font-family="sans-serif" font-size="14" lengthAdjust="spacing" textLength="146.3096" x="287.5" y="428.9707">updated_at : timestamp</text></g><!--class matchs--><g class="entity" data-qualified-name="matchs" data-source-line="36" id="ent0005"><rect fill="#F1F1F1" height="214.4844" rx="2.5" ry="2.5" style="stroke:#181818;stroke-width:0.5;" width="327.1982" x="69.5" y="519"/><ellipse cx="206.2871" cy="535" fill="#ADD1B2" rx="11" ry="11" style="stroke:#181818;stroke-width:1;"/><path d="M205.1465,535.7969 L205.1465,538.2969 L209.4746,538.2969 L209.4746,537.375 Q209.4746,536.7656 209.709,536.5 Q209.959,536.2344 210.334,536.2344 Q210.709,536.2344 210.9434,536.5 Q211.1777,536.7656 211.1777,537.375 L211.1777,540 L203.1777,540 Q202.5527,540 202.2871,539.7656 Q202.0371,539.5313 202.0371,539.1406 Q202.0371,538.7656 202.3027,538.5313 Q202.5684,538.2969 203.1777,538.2969 L203.4434,538.2969 L203.4434,531.6406 L203.1777,531.6406 Q202.5527,531.6406 202.2871,531.4063 Q202.0371,531.1719 202.0371,530.7813 Q202.0371,530.4063 202.2871,530.1719 Q202.5527,529.9375 203.1777,529.9375 L210.8027,529.9375 L210.8027,532.5313 Q210.8027,533.1406 210.5684,533.4063 Q210.3496,533.6563 209.959,533.6563 Q209.584,533.6563 209.3496,533.4063 Q209.1152,533.1406 209.1152,532.5313 L209.1152,531.6406 L205.1465,531.6406 L205.1465,534.0938 L206.6309,534.0938 Q206.6309,533.4375 206.7559,533.25 Q207.0215,532.8438 207.4902,532.8438 Q207.8652,532.8438 208.0996,533.1094 Q208.334,533.3594 208.334,533.9688 L208.334,535.9375 Q208.334,536.4844 208.209,536.6719 Q207.9434,537.0625 207.4902,537.0625 Q207.0215,537.0625 206.7559,536.6563 Q206.6309,536.4688 206.6309,535.7969 L205.1465,535.7969 Z " fill="#000000"/><text fill="#000000" font-family="sans-serif" font-size="14" lengthAdjust="spacing" textLength="45.124" x="226.7871" y="540.7285">matchs</text><line style="stroke:#181818;stroke-width:0.5;" x1="70.5" x2="395.6982" y1="551" y2="551"/><g data-visibility-modifier="IE_MANDATORY"><ellipse cx="80.5" cy="565.3047" fill="#000000" rx="3" ry="3" style="stroke:#000000;stroke-width:1;"/></g><text fill="#000000" font-family="sans-serif" font-size="14" lengthAdjust="spacing" textLength="94.1719" x="89.5" y="569.5332">id : bigint &#171;PK&#187;</text><line style="stroke:#181818;stroke-width:1;" x1="70.5" x2="395.6982" y1="576.6094" y2="576.6094"/><text fill="#000000" font-family="sans-serif" font-size="14" lengthAdjust="spacing" textLength="181.3369" x="75.5" y="595.1426">championnat_id : bigint &#171;FK&#187;</text><text fill="#000000" font-family="sans-serif" font-size="14" lengthAdjust="spacing" textLength="150.999" x="75.5" y="612.752">equipe1_id : bigint &#171;FK&#187;</text><text fill="#000000" font-family="sans-serif" font-size="14" lengthAdjust="spacing" textLength="150.999" x="75.5" y="630.3613">equipe2_id : bigint &#171;FK&#187;</text><text fill="#000000" font-family="sans-serif" font-size="14" lengthAdjust="spacing" textLength="98.0479" x="75.5" y="647.9707">score1 : tinyint?</text><text fill="#000000" font-family="sans-serif" font-size="14" lengthAdjust="spacing" textLength="98.0479" x="75.5" y="665.5801">score2 : tinyint?</text><text fill="#000000" font-family="sans-serif" font-size="14" lengthAdjust="spacing" textLength="142.3994" x="75.5" y="683.1895">created_at : timestamp</text><text fill="#000000" font-family="sans-serif" font-size="14" lengthAdjust="spacing" textLength="146.3096" x="75.5" y="700.7988">updated_at : timestamp</text><line style="stroke:#181818;stroke-width:1;" x1="70.5" x2="395.6982" y1="707.875" y2="707.875"/><text fill="#000000" font-family="sans-serif" font-size="14" lengthAdjust="spacing" textLength="315.1982" x="75.5" y="726.4082">UNIQUE(championnat_id, equipe1_id, equipe2_id)</text></g><!--class classement--><g class="entity" data-qualified-name="classement" data-source-line="50" id="ent0006"><rect fill="#F1F1F1" height="241.7031" rx="2.5" ry="2.5" style="stroke:#181818;stroke-width:0.5;" width="193.3369" x="431.5" y="505"/><ellipse cx="488.5151" cy="521" fill="#ADD1B2" rx="11" ry="11" style="stroke:#181818;stroke-width:1;"/><path d="M487.3745,521.7969 L487.3745,524.2969 L491.7026,524.2969 L491.7026,523.375 Q491.7026,522.7656 491.937,522.5 Q492.187,522.2344 492.562,522.2344 Q492.937,522.2344 493.1714,522.5 Q493.4058,522.7656 493.4058,523.375 L493.4058,526 L485.4058,526 Q484.7808,526 484.5151,525.7656 Q484.2651,525.5313 484.2651,525.1406 Q484.2651,524.7656 484.5308,524.5313 Q484.7964,524.2969 485.4058,524.2969 L485.6714,524.2969 L485.6714,517.6406 L485.4058,517.6406 Q484.7808,517.6406 484.5151,517.4063 Q484.2651,517.1719 484.2651,516.7813 Q484.2651,516.4063 484.5151,516.1719 Q484.7808,515.9375 485.4058,515.9375 L493.0308,515.9375 L493.0308,518.5313 Q493.0308,519.1406 492.7964,519.4063 Q492.5776,519.6563 492.187,519.6563 Q491.812,519.6563 491.5776,519.4063 Q491.3433,519.1406 491.3433,518.5313 L491.3433,517.6406 L487.3745,517.6406 L487.3745,520.0938 L488.8589,520.0938 Q488.8589,519.4375 488.9839,519.25 Q489.2495,518.8438 489.7183,518.8438 Q490.0933,518.8438 490.3276,519.1094 Q490.562,519.3594 490.562,519.9688 L490.562,521.9375 Q490.562,522.4844 490.437,522.6719 Q490.1714,523.0625 489.7183,523.0625 Q489.2495,523.0625 488.9839,522.6563 Q488.8589,522.4688 488.8589,521.7969 L487.3745,521.7969 Z " fill="#000000"/><text fill="#000000" font-family="sans-serif" font-size="14" lengthAdjust="spacing" textLength="70.8066" x="509.0151" y="526.7285">classement</text><line style="stroke:#181818;stroke-width:0.5;" x1="432.5" x2="623.8369" y1="537" y2="537"/><g data-visibility-modifier="IE_MANDATORY"><ellipse cx="442.5" cy="551.3047" fill="#000000" rx="3" ry="3" style="stroke:#000000;stroke-width:1;"/></g><text fill="#000000" font-family="sans-serif" font-size="14" lengthAdjust="spacing" textLength="94.1719" x="451.5" y="555.5332">id : bigint &#171;PK&#187;</text><line style="stroke:#181818;stroke-width:1;" x1="432.5" x2="623.8369" y1="562.6094" y2="562.6094"/><text fill="#000000" font-family="sans-serif" font-size="14" lengthAdjust="spacing" textLength="143.2129" x="437.5" y="581.1426">equipe_id : bigint &#171;FK&#187;</text><text fill="#000000" font-family="sans-serif" font-size="14" lengthAdjust="spacing" textLength="181.3369" x="437.5" y="598.752">championnat_id : bigint &#171;FK&#187;</text><text fill="#000000" font-family="sans-serif" font-size="14" lengthAdjust="spacing" textLength="63.8135" x="437.5" y="616.3613">points : int</text><text fill="#000000" font-family="sans-serif" font-size="14" lengthAdjust="spacing" textLength="77.7998" x="437.5" y="633.9707">victoires : int</text><text fill="#000000" font-family="sans-serif" font-size="14" lengthAdjust="spacing" textLength="75.4893" x="437.5" y="651.5801">defaites : int</text><text fill="#000000" font-family="sans-serif" font-size="14" lengthAdjust="spacing" textLength="52.1377" x="437.5" y="669.1895">nuls : int</text><text fill="#000000" font-family="sans-serif" font-size="14" lengthAdjust="spacing" textLength="115.1719" x="437.5" y="686.7988">buts_marques : int</text><text fill="#000000" font-family="sans-serif" font-size="14" lengthAdjust="spacing" textLength="122.958" x="437.5" y="704.4082">buts_encaisses : int</text><text fill="#000000" font-family="sans-serif" font-size="14" lengthAdjust="spacing" textLength="142.3994" x="437.5" y="722.0176">created_at : timestamp</text><text fill="#000000" font-family="sans-serif" font-size="14" lengthAdjust="spacing" textLength="146.3096" x="437.5" y="739.627">updated_at : timestamp</text></g><!--class sessions--><g class="entity" data-qualified-name="sessions" data-source-line="65" id="ent0007"><rect fill="#F1F1F1" height="153.6563" rx="2.5" ry="2.5" style="stroke:#181818;stroke-width:0.5;" width="134.1787" x="41" y="291"/><ellipse cx="77.4695" cy="307" fill="#ADD1B2" rx="11" ry="11" style="stroke:#181818;stroke-width:1;"/><path d="M76.3289,307.7969 L76.3289,310.2969 L80.657,310.2969 L80.657,309.375 Q80.657,308.7656 80.8914,308.5 Q81.1414,308.2344 81.5164,308.2344 Q81.8914,308.2344 82.1257,308.5 Q82.3601,308.7656 82.3601,309.375 L82.3601,312 L74.3601,312 Q73.7351,312 73.4695,311.7656 Q73.2195,311.5313 73.2195,311.1406 Q73.2195,310.7656 73.4851,310.5313 Q73.7507,310.2969 74.3601,310.2969 L74.6257,310.2969 L74.6257,303.6406 L74.3601,303.6406 Q73.7351,303.6406 73.4695,303.4063 Q73.2195,303.1719 73.2195,302.7813 Q73.2195,302.4063 73.4695,302.1719 Q73.7351,301.9375 74.3601,301.9375 L81.9851,301.9375 L81.9851,304.5313 Q81.9851,305.1406 81.7507,305.4063 Q81.532,305.6563 81.1414,305.6563 Q80.7664,305.6563 80.532,305.4063 Q80.2976,305.1406 80.2976,304.5313 L80.2976,303.6406 L76.3289,303.6406 L76.3289,306.0938 L77.8132,306.0938 Q77.8132,305.4375 77.9382,305.25 Q78.2039,304.8438 78.6726,304.8438 Q79.0476,304.8438 79.282,305.1094 Q79.5164,305.3594 79.5164,305.9688 L79.5164,307.9375 Q79.5164,308.4844 79.3914,308.6719 Q79.1257,309.0625 78.6726,309.0625 Q78.2039,309.0625 77.9382,308.6563 Q77.8132,308.4688 77.8132,307.7969 L76.3289,307.7969 Z " fill="#000000"/><text fill="#000000" font-family="sans-serif" font-size="14" lengthAdjust="spacing" textLength="54.4688" x="96.2405" y="312.7285">sessions</text><line style="stroke:#181818;stroke-width:0.5;" x1="42" x2="174.1787" y1="323" y2="323"/><g data-visibility-modifier="IE_MANDATORY"><ellipse cx="52" cy="337.3047" fill="#000000" rx="3" ry="3" style="stroke:#000000;stroke-width:1;"/></g><text fill="#000000" font-family="sans-serif" font-size="14" lengthAdjust="spacing" textLength="94.9375" x="61" y="341.5332">id : string &#171;PK&#187;</text><line style="stroke:#181818;stroke-width:1;" x1="42" x2="174.1787" y1="348.6094" y2="348.6094"/><text fill="#000000" font-family="sans-serif" font-size="14" lengthAdjust="spacing" textLength="98.8408" x="47" y="367.1426">user_id : bigint?</text><text fill="#000000" font-family="sans-serif" font-size="14" lengthAdjust="spacing" textLength="122.1787" x="47" y="384.752">ip_address : string?</text><text fill="#000000" font-family="sans-serif" font-size="14" lengthAdjust="spacing" textLength="112.0752" x="47" y="402.3613">user_agent : text?</text><text fill="#000000" font-family="sans-serif" font-size="14" lengthAdjust="spacing" textLength="109.7441" x="47" y="419.9707">payload : longtext</text><text fill="#000000" font-family="sans-serif" font-size="14" lengthAdjust="spacing" textLength="98.8135" x="47" y="437.5801">last_activity : int</text></g><!--class prt--><g class="entity" data-qualified-name="prt" data-source-line="75" id="ent0008"><rect fill="#F1F1F1" height="100.8281" rx="2.5" ry="2.5" style="stroke:#181818;stroke-width:0.5;" width="179.8613" x="492" y="68.5"/><ellipse cx="507" cy="84.5" fill="#ADD1B2" rx="11" ry="11" style="stroke:#181818;stroke-width:1;"/><path d="M505.8594,85.2969 L505.8594,87.7969 L510.1875,87.7969 L510.1875,86.875 Q510.1875,86.2656 510.4219,86 Q510.6719,85.7344 511.0469,85.7344 Q511.4219,85.7344 511.6563,86 Q511.8906,86.2656 511.8906,86.875 L511.8906,89.5 L503.8906,89.5 Q503.2656,89.5 503,89.2656 Q502.75,89.0313 502.75,88.6406 Q502.75,88.2656 503.0156,88.0313 Q503.2813,87.7969 503.8906,87.7969 L504.1563,87.7969 L504.1563,81.1406 L503.8906,81.1406 Q503.2656,81.1406 503,80.9063 Q502.75,80.6719 502.75,80.2813 Q502.75,79.9063 503,79.6719 Q503.2656,79.4375 503.8906,79.4375 L511.5156,79.4375 L511.5156,82.0313 Q511.5156,82.6406 511.2813,82.9063 Q511.0625,83.1563 510.6719,83.1563 Q510.2969,83.1563 510.0625,82.9063 Q509.8281,82.6406 509.8281,82.0313 L509.8281,81.1406 L505.8594,81.1406 L505.8594,83.5938 L507.3438,83.5938 Q507.3438,82.9375 507.4688,82.75 Q507.7344,82.3438 508.2031,82.3438 Q508.5781,82.3438 508.8125,82.6094 Q509.0469,82.8594 509.0469,83.4688 L509.0469,85.4375 Q509.0469,85.9844 508.9219,86.1719 Q508.6563,86.5625 508.2031,86.5625 Q507.7344,86.5625 507.4688,86.1563 Q507.3438,85.9688 507.3438,85.2969 L505.8594,85.2969 Z " fill="#000000"/><text fill="#000000" font-family="sans-serif" font-size="14" lengthAdjust="spacing" textLength="147.8613" x="521" y="90.2285">password_reset_tokens</text><line style="stroke:#181818;stroke-width:0.5;" x1="493" x2="670.8613" y1="100.5" y2="100.5"/><g data-visibility-modifier="IE_MANDATORY"><ellipse cx="503" cy="114.8047" fill="#000000" rx="3" ry="3" style="stroke:#000000;stroke-width:1;"/></g><text fill="#000000" font-family="sans-serif" font-size="14" lengthAdjust="spacing" textLength="117.4961" x="512" y="119.0332">email : string &#171;PK&#187;</text><line style="stroke:#181818;stroke-width:1;" x1="493" x2="670.8613" y1="126.1094" y2="126.1094"/><text fill="#000000" font-family="sans-serif" font-size="14" lengthAdjust="spacing" textLength="80.1514" x="498" y="144.6426">token : string</text><text fill="#000000" font-family="sans-serif" font-size="14" lengthAdjust="spacing" textLength="150.1855" x="498" y="162.252">created_at : timestamp?</text></g><!--link championnats to equipes--><g class="link" data-entity-1="ent0003" data-entity-2="ent0004" data-link-type="crowfoot" data-source-line="82" id="lnk9"><path codeLine="82" d="M378,186.01 C378,222.54 378,243.58 378,281.72" fill="none" id="championnats-equipes" style="stroke:#181818;stroke-width:1;"/><line style="stroke:#181818;stroke-width:1;" x1="374" x2="382" y1="182.01" y2="182.01"/><line style="stroke:#181818;stroke-width:1;" x1="374" x2="382" y1="185.01" y2="185.01"/><line style="stroke:#181818;stroke-width:1;" x1="378" x2="378" y1="186.01" y2="178.01"/><line style="stroke:#181818;stroke-width:1;" x1="378" x2="384" y1="291.72" y2="299.72"/><line style="stroke:#181818;stroke-width:1;" x1="378" x2="372" y1="291.72" y2="299.72"/><line style="stroke:#181818;stroke-width:1;" x1="378" x2="378" y1="291.72" y2="299.72"/><ellipse cx="378" cy="285.72" fill="none" rx="4" ry="4" style="stroke:#181818;stroke-width:1;"/><text fill="#000000" font-family="sans-serif" font-size="13" lengthAdjust="spacing" textLength="91.7871" x="286" y="235.3551">championnat_id</text></g><!--link championnats to matchs--><g class="link" data-entity-1="ent0003" data-entity-2="ent0005" data-link-type="crowfoot" data-source-line="83" id="lnk10"><path codeLine="83" d="M290.86,119 C262.43,119 245.25,119 245.25,119 C245.25,119 245.25,352 245.25,500.79" fill="none" id="championnats-matchs" style="stroke:#181818;stroke-width:1;"/><line style="stroke:#181818;stroke-width:1;" x1="294.86" x2="294.86" y1="115" y2="123"/><line style="stroke:#181818;stroke-width:1;" x1="291.86" x2="291.86" y1="115" y2="123"/><line style="stroke:#181818;stroke-width:1;" x1="290.86" x2="298.86" y1="119" y2="119"/><line style="stroke:#181818;stroke-width:1;" x1="245.25" x2="251.25" y1="510.79" y2="518.79"/><line style="stroke:#181818;stroke-width:1;" x1="245.25" x2="239.25" y1="510.79" y2="518.79"/><line style="stroke:#181818;stroke-width:1;" x1="245.25" x2="245.25" y1="510.79" y2="518.79"/><ellipse cx="245.25" cy="504.79" fill="none" rx="4" ry="4" style="stroke:#181818;stroke-width:1;"/><text fill="#000000" font-family="sans-serif" font-size="13" lengthAdjust="spacing" textLength="91.7871" x="246.25" y="288.5851">championnat_id</text></g><!--link equipes to matchs--><g class="link" data-entity-1="ent0004" data-entity-2="ent0005" data-link-type="crowfoot" data-source-line="84" id="lnk11"><path codeLine="84" d="M319.83,444.12 C319.83,469.5 319.83,472.96 319.83,500.99" fill="none" id="equipes-matchs" style="stroke:#181818;stroke-width:1;"/><line style="stroke:#181818;stroke-width:1;" x1="315.83" x2="323.83" y1="440.12" y2="440.12"/><line style="stroke:#181818;stroke-width:1;" x1="315.83" x2="323.83" y1="443.12" y2="443.12"/><line style="stroke:#181818;stroke-width:1;" x1="319.83" x2="319.83" y1="444.12" y2="436.12"/><line style="stroke:#181818;stroke-width:1;" x1="319.83" x2="325.83" y1="510.99" y2="518.99"/><line style="stroke:#181818;stroke-width:1;" x1="319.83" x2="313.83" y1="510.99" y2="518.99"/><line style="stroke:#181818;stroke-width:1;" x1="319.83" x2="319.83" y1="510.99" y2="518.99"/><ellipse cx="319.83" cy="504.99" fill="none" rx="4" ry="4" style="stroke:#181818;stroke-width:1;"/><text fill="#000000" font-family="sans-serif" font-size="13" lengthAdjust="spacing" textLength="63.6162" x="255.83" y="474.0551">equipe1_id</text></g><!--link equipes to matchs--><g class="link" data-entity-1="ent0004" data-entity-2="ent0005" data-link-type="crowfoot" data-source-line="85" id="lnk12"><path codeLine="85" d="M358.17,444.12 C358.17,469.5 358.17,472.96 358.17,500.99" fill="none" id="equipes-matchs-1" style="stroke:#181818;stroke-width:1;"/><line style="stroke:#181818;stroke-width:1;" x1="354.17" x2="362.17" y1="440.12" y2="440.12"/><line style="stroke:#181818;stroke-width:1;" x1="354.17" x2="362.17" y1="443.12" y2="443.12"/><line style="stroke:#181818;stroke-width:1;" x1="358.17" x2="358.17" y1="444.12" y2="436.12"/><line style="stroke:#181818;stroke-width:1;" x1="358.17" x2="364.17" y1="510.99" y2="518.99"/><line style="stroke:#181818;stroke-width:1;" x1="358.17" x2="352.17" y1="510.99" y2="518.99"/><line style="stroke:#181818;stroke-width:1;" x1="358.17" x2="358.17" y1="510.99" y2="518.99"/><ellipse cx="358.17" cy="504.99" fill="none" rx="4" ry="4" style="stroke:#181818;stroke-width:1;"/><text fill="#000000" font-family="sans-serif" font-size="13" lengthAdjust="spacing" textLength="63.6162" x="294.17" y="492.0551">equipe2_id</text></g><!--link championnats to classement--><g class="link" data-entity-1="ent0003" data-entity-2="ent0006" data-link-type="crowfoot" data-source-line="86" id="lnk13"><path codeLine="86" d="M465.23,174 C480.19,174 483.25,174 483.25,174 C483.25,174 483.25,352.98 483.25,486.87" fill="none" id="championnats-classement" style="stroke:#181818;stroke-width:1;"/><line style="stroke:#181818;stroke-width:1;" x1="461.23" x2="461.23" y1="178" y2="170"/><line style="stroke:#181818;stroke-width:1;" x1="464.23" x2="464.23" y1="178" y2="170"/><line style="stroke:#181818;stroke-width:1;" x1="465.23" x2="457.23" y1="174" y2="174"/><line style="stroke:#181818;stroke-width:1;" x1="483.25" x2="489.25" y1="496.87" y2="504.87"/><line style="stroke:#181818;stroke-width:1;" x1="483.25" x2="477.25" y1="496.87" y2="504.87"/><line style="stroke:#181818;stroke-width:1;" x1="483.25" x2="483.25" y1="496.87" y2="504.87"/><ellipse cx="483.25" cy="490.87" fill="none" rx="4" ry="4" style="stroke:#181818;stroke-width:1;"/><text fill="#000000" font-family="sans-serif" font-size="13" lengthAdjust="spacing" textLength="91.7871" x="484.25" y="322.9251">championnat_id</text></g><!--link equipes to classement--><g class="link" data-entity-1="ent0004" data-entity-2="ent0006" data-link-type="crowfoot" data-source-line="87" id="lnk14"><path codeLine="87" d="M453,444.12 C453,465.25 453,463.2 453,486.8" fill="none" id="equipes-classement" style="stroke:#181818;stroke-width:1;"/><line style="stroke:#181818;stroke-width:1;" x1="449" x2="457" y1="440.12" y2="440.12"/><line style="stroke:#181818;stroke-width:1;" x1="449" x2="457" y1="443.12" y2="443.12"/><line style="stroke:#181818;stroke-width:1;" x1="453" x2="453" y1="444.12" y2="436.12"/><line style="stroke:#181818;stroke-width:1;" x1="453" x2="459" y1="496.8" y2="504.8"/><line style="stroke:#181818;stroke-width:1;" x1="453" x2="447" y1="496.8" y2="504.8"/><line style="stroke:#181818;stroke-width:1;" x1="453" x2="453" y1="496.8" y2="504.8"/><ellipse cx="453" cy="490.8" fill="none" rx="4" ry="4" style="stroke:#181818;stroke-width:1;"/><text fill="#000000" font-family="sans-serif" font-size="13" lengthAdjust="spacing" textLength="56.3862" x="396" y="466.9551">equipe_id</text></g><!--link users to sessions--><g class="link" data-entity-1="ent0002" data-entity-2="ent0007" data-link-type="crowfoot" data-source-line="88" id="lnk15"><path codeLine="88" d="M108,239.12 C108,259.25 108,253.83 108,272.7" fill="none" id="users-sessions" style="stroke:#181818;stroke-width:1;"/><line style="stroke:#181818;stroke-width:1;" x1="104" x2="112" y1="235.12" y2="235.12"/><line style="stroke:#181818;stroke-width:1;" x1="104" x2="112" y1="238.12" y2="238.12"/><line style="stroke:#181818;stroke-width:1;" x1="108" x2="108" y1="239.12" y2="231.12"/><line style="stroke:#181818;stroke-width:1;" x1="108" x2="114" y1="282.7" y2="290.7"/><line style="stroke:#181818;stroke-width:1;" x1="108" x2="102" y1="282.7" y2="290.7"/><line style="stroke:#181818;stroke-width:1;" x1="108" x2="108" y1="282.7" y2="290.7"/><ellipse cx="108" cy="276.7" fill="none" rx="4" ry="4" style="stroke:#181818;stroke-width:1;"/><text fill="#000000" font-family="sans-serif" font-size="13" lengthAdjust="spacing" textLength="42.6372" x="65" y="257.4051">user_id</text></g><?plantuml-src fLLBRzim3BxxLmWzjKDoQ8v1qPmsO1XGj8US3SLYOwAMv4fqjg3TVnzbERQLnumYbqJyI8eV7w9BL20qK6cLpyeWU087blOr-Co_eQcbarfKQ21WmZgspJ8mXBGNDuq7vs-4zA8zYOzCY6-en59iS8k6nCF3yw_7HqRdS_unKWFhF3aqsnK3mIi1sM7zqZg0bbWDneF2sIhOWsdqhLGQpKpiq2D1u-vONKllVrkdUjVW0Xhq1bnEzWrCmg0Da-_0uIk2oYMnbb239wdhO50ua7IY2TnhTKxnTwXEKJA0rXX9iKXZOB9MLezJk886l3V8xMmPTEUl1XzuvwdJZ-Xq1JijgIWZkNYSuZP99kPu_p_buhpI5zR1VSlKx5cpEc2B5FjgkXtpzTFFb_NtspI1sOZlR4JlBfcaYgUQXzXGdADUd2fMlEz2qwOAMLiMFIluZyKT5cJHmO0eU9Nyy0R0DDKWR1hokPRklO4Z44mXaJCOu2i6YA_nd4KSeOCmgak_MCPr2Ojdd7JeAjQvL8hpyoSxAfVRK6nc07zQsrhkAok3VsNDDg0CSbSebmNXBX2BgOs87ZPJpY60uYwAh6lNDJ9TUaUSq-LriMYh43FPD9-VyxdzwD_-ygZpPusxjtXYUxZas6mOuWcJnQM8ew6UYfgOzYEUnMzGPzDFmlBGxEmV?></g></svg>