<?plantuml 1.2026.2?><svg xmlns="http://www.w3.org/2000/svg" xmlns:xlink="http://www.w3.org/1999/xlink" contentStyleType="text/css" data-diagram-type="SEQUENCE" height="841px" preserveAspectRatio="none" style="width:1533px;height:841px;background:#FFFFFF;" version="1.1" viewBox="0 0 1533 841" width="1533px" zoomAndPan="magnify"><defs/><g><rect fill="none" height="504.8125" style="stroke:#000000;stroke-width:1.5;" width="1516.3193" x="10" y="237.3672"/><g class="participant-lifeline" data-entity-uid="part1" data-qualified-name="Admin" id="part1-lifeline"><g><title>Admin</title><rect fill="#000000" fill-opacity="0.00000" height="676.5703" width="8" x="38.8413" y="82.6094"/><line style="stroke:#181818;stroke-width:0.5;stroke-dasharray:5,5;" x1="42" x2="42" y1="82.6094" y2="759.1797"/></g></g><g class="participant-lifeline" data-entity-uid="part2" data-qualified-name="Router" id="part2-lifeline"><g><title>Laravel Router</title><rect fill="#000000" fill-opacity="0.00000" height="676.5703" width="8" x="369.5928" y="82.6094"/><line style="stroke:#181818;stroke-width:0.5;stroke-dasharray:5,5;" x1="372.6792" x2="372.6792" y1="82.6094" y2="759.1797"/></g></g><g class="participant-lifeline" data-entity-uid="part3" data-qualified-name="AuthMW" id="part3-lifeline"><g><title>auth middleware</title><rect fill="#000000" fill-opacity="0.00000" height="676.5703" width="8" x="530.8682" y="82.6094"/><line style="stroke:#181818;stroke-width:0.5;stroke-dasharray:5,5;" x1="534.5063" x2="534.5063" y1="82.6094" y2="759.1797"/></g></g><g class="participant-lifeline" data-entity-uid="part4" data-qualified-name="AdminMW" id="part4-lifeline"><g><title>admin middleware</title><rect fill="#000000" fill-opacity="0.00000" height="676.5703" width="8" x="703.0332" y="82.6094"/><line style="stroke:#181818;stroke-width:0.5;stroke-dasharray:5,5;" x1="706.23" x2="706.23" y1="82.6094" y2="759.1797"/></g></g><g class="participant-lifeline" data-entity-uid="part5" data-qualified-name="UFR" id="part5-lifeline"><g><title>UpdateFixtureRequest</title><rect fill="#000000" fill-opacity="0.00000" height="676.5703" width="8" x="893.874" y="82.6094"/><line style="stroke:#181818;stroke-width:0.5;stroke-dasharray:5,5;" x1="897.8364" x2="897.8364" y1="82.6094" y2="759.1797"/></g></g><g class="participant-lifeline" data-entity-uid="part6" data-qualified-name="MC" id="part6-lifeline"><g><title>MatchController</title><rect fill="#000000" fill-opacity="0.00000" height="676.5703" width="8" x="1077.3184" y="82.6094"/><line style="stroke:#181818;stroke-width:0.5;stroke-dasharray:5,5;" x1="1080.9116" x2="1080.9116" y1="82.6094" y2="759.1797"/></g></g><g class="participant-lifeline" data-entity-uid="part7" data-qualified-name="FixtureModel" id="part7-lifeline"><g><title>Fixture .Eloquent.</title><rect fill="#000000" fill-opacity="0.00000" height="676.5703" width="8" x="1301.937" y="82.6094"/><line style="stroke:#181818;stroke-width:0.5;stroke-dasharray:5,5;" x1="1305.3027" x2="1305.3027" y1="82.6094" y2="759.1797"/></g></g><g class="participant-lifeline" data-entity-uid="part8" data-qualified-name="DB" id="part8-lifeline"><g><title>MySQL</title><rect fill="#000000" fill-opacity="0.00000" height="676.5703" width="8" x="1485.9814" y="82.6094"/><line style="stroke:#181818;stroke-width:0.5;stroke-dasharray:5,5;" x1="1489.6436" x2="1489.6436" y1="82.6094" y2="759.1797"/></g></g><g class="participant participant-head" data-entity-uid="part1" data-qualified-name="Admin" id="part1-head"><text fill="#000000" font-family="sans-serif" font-size="14" lengthAdjust="spacing" textLength="39.6826" x="20" y="79.5332">Admin</text><ellipse cx="42.8413" cy="13.5" fill="#E2E2F0" rx="8" ry="8" style="stroke:#181818;stroke-width:0.5;"/><path d="M42.8413,21.5 L42.8413,48.5 M29.8413,29.5 L55.8413,29.5 M42.8413,48.5 L29.8413,63.5 M42.8413,48.5 L55.8413,63.5" fill="none" style="stroke:#181818;stroke-width:0.5;"/></g><g class="participant participant-tail" data-entity-uid="part1" data-qualified-name="Admin" id="part1-tail"><text fill="#000000" font-family="sans-serif" font-size="14" lengthAdjust="spacing" textLength="39.6826" x="20" y="772.7129">Admin</text><ellipse cx="42.8413" cy="784.2891" fill="#E2E2F0" rx="8" ry="8" style="stroke:#181818;stroke-width:0.5;"/><path d="M42.8413,792.2891 L42.8413,819.2891 M29.8413,800.2891 L55.8413,800.2891 M42.8413,819.2891 L29.8413,834.2891 M42.8413,819.2891 L55.8413,834.2891" fill="none" style="stroke:#181818;stroke-width:0.5;"/></g><g class="participant participant-head" data-entity-uid="part2" data-qualified-name="Router" id="part2-head"><rect fill="#E2E2F0" height="31.6094" rx="2.5" ry="2.5" style="stroke:#181818;stroke-width:0.5;" width="105.8271" x="320.6792" y="50"/><text fill="#000000" font-family="sans-serif" font-size="14" lengthAdjust="spacing" textLength="91.8271" x="327.6792" y="71.5332">Laravel Router</text></g><g class="participant participant-tail" data-entity-uid="part2" data-qualified-name="Router" id="part2-tail"><rect fill="#E2E2F0" height="31.6094" rx="2.5" ry="2.5" style="stroke:#181818;stroke-width:0.5;" width="105.8271" x="320.6792" y="758.1797"/><text fill="#000000" font-family="sans-serif" font-size="14" lengthAdjust="spacing" textLength="91.8271" x="327.6792" y="779.7129">Laravel Router</text></g><g class="participant participant-head" data-entity-uid="part3" data-qualified-name="AuthMW" id="part3-head"><rect fill="#E2E2F0" height="31.6094" rx="2.5" ry="2.5" style="stroke:#181818;stroke-width:0.5;" width="116.7236" x="476.5063" y="50"/><text fill="#000000" font-family="sans-serif" font-size="14" lengthAdjust="spacing" textLength="102.7236" x="483.5063" y="71.5332">auth middleware</text></g><g class="participant participant-tail" data-entity-uid="part3" data-qualified-name="AuthMW" id="part3-tail"><rect fill="#E2E2F0" height="31.6094" rx="2.5" ry="2.5" style="stroke:#181818;stroke-width:0.5;" width="116.7236" x="476.5063" y="758.1797"/><text fill="#000000" font-family="sans-serif" font-size="14" lengthAdjust="spacing" textLength="102.7236" x="483.5063" y="779.7129">auth middleware</text></g><g class="participant participant-head" data-entity-uid="part4" data-qualified-name="AdminMW" id="part4-head"><rect fill="#E2E2F0" height="49.2188" rx="2.5" ry="2.5" style="stroke:#181818;stroke-width:0.5;" width="127.6064" x="643.23" y="32.3906"/><text fill="#000000" font-family="sans-serif" font-size="14" lengthAdjust="spacing" textLength="113.6064" x="650.23" y="53.9238">admin middleware</text><text fill="#000000" font-family="sans-serif" font-size="14" lengthAdjust="spacing" textLength="94.9307" x="659.5679" y="71.5332">EnsureIsAdmin</text></g><g class="participant participant-tail" data-entity-uid="part4" data-qualified-name="AdminMW" id="part4-tail"><rect fill="#E2E2F0" height="49.2188" rx="2.5" ry="2.5" style="stroke:#181818;stroke-width:0.5;" width="127.6064" x="643.23" y="758.1797"/><text fill="#000000" font-family="sans-serif" font-size="14" lengthAdjust="spacing" textLength="113.6064" x="650.23" y="779.7129">admin middleware</text><text fill="#000000" font-family="sans-serif" font-size="14" lengthAdjust="spacing" textLength="94.9307" x="659.5679" y="797.3223">EnsureIsAdmin</text></g><g class="participant participant-head" data-entity-uid="part5" data-qualified-name="UFR" id="part5-head"><rect fill="#E2E2F0" height="31.6094" rx="2.5" ry="2.5" style="stroke:#181818;stroke-width:0.5;" width="154.0752" x="820.8364" y="50"/><text fill="#000000" font-family="sans-serif" font-size="14" lengthAdjust="spacing" textLength="140.0752" x="827.8364" y="71.5332">UpdateFixtureRequest</text></g><g class="participant participant-tail" data-entity-uid="part5" data-qualified-name="UFR" id="part5-tail"><rect fill="#E2E2F0" height="31.6094" rx="2.5" ry="2.5" style="stroke:#181818;stroke-width:0.5;" width="154.0752" x="820.8364" y="758.1797"/><text fill="#000000" font-family="sans-serif" font-size="14" lengthAdjust="spacing" textLength="140.0752" x="827.8364" y="779.7129">UpdateFixtureRequest</text></g><g class="participant participant-head" data-entity-uid="part6" data-qualified-name="MC" id="part6-head"><rect fill="#E2E2F0" height="31.6094" rx="2.5" ry="2.5" style="stroke:#181818;stroke-width:0.5;" width="112.8135" x="1024.9116" y="50"/><text fill="#000000" font-family="sans-serif" font-size="14" lengthAdjust="spacing" textLength="98.8135" x="1031.9116" y="71.5332">MatchController</text></g><g class="participant participant-tail" data-entity-uid="part6" data-qualified-name="MC" id="part6-tail"><rect fill="#E2E2F0" height="31.6094" rx="2.5" ry="2.5" style="stroke:#181818;stroke-width:0.5;" width="112.8135" x="1024.9116" y="758.1797"/><text fill="#000000" font-family="sans-serif" font-size="14" lengthAdjust="spacing" textLength="98.8135" x="1031.9116" y="779.7129">MatchController</text></g><g class="participant participant-head" data-entity-uid="part7" data-qualified-name="FixtureModel" id="part7-head"><rect fill="#E2E2F0" height="31.6094" rx="2.5" ry="2.5" style="stroke:#181818;stroke-width:0.5;" width="125.2686" x="1243.3027" y="50"/><text fill="#000000" font-family="sans-serif" font-size="14" lengthAdjust="spacing" textLength="111.2686" x="1250.3027" y="71.5332">Fixture (Eloquent)</text></g><g class="participant participant-tail" data-entity-uid="part7" data-qualified-name="FixtureModel" id="part7-tail"><rect fill="#E2E2F0" height="31.6094" rx="2.5" ry="2.5" style="stroke:#181818;stroke-width:0.5;" width="125.2686" x="1243.3027" y="758.1797"/><text fill="#000000" font-family="sans-serif" font-size="14" lengthAdjust="spacing" textLength="111.2686" x="1250.3027" y="779.7129">Fixture (Eloquent)</text></g><g class="participant participant-head" data-entity-uid="part8" data-qualified-name="DB" id="part8-head"><text fill="#000000" font-family="sans-serif" font-size="14" lengthAdjust="spacing" textLength="46.6758" x="1463.6436" y="79.5332">MySQL</text><path d="M1471.9814,29 C1471.9814,19 1489.9814,19 1489.9814,19 C1489.9814,19 1507.9814,19 1507.9814,29 L1507.9814,55 C1507.9814,65 1489.9814,65 1489.9814,65 C1489.9814,65 1471.9814,65 1471.9814,55 L1471.9814,29" fill="#E2E2F0" style="stroke:#181818;stroke-width:0.5;"/><path d="M1471.9814,29 C1471.9814,39 1489.9814,39 1489.9814,39 C1489.9814,39 1507.9814,39 1507.9814,29" fill="none" style="stroke:#181818;stroke-width:0.5;"/></g><g class="participant participant-tail" data-entity-uid="part8" data-qualified-name="DB" id="part8-tail"><text fill="#000000" font-family="sans-serif" font-size="14" lengthAdjust="spacing" textLength="46.6758" x="1463.6436" y="772.7129">MySQL</text><path d="M1471.9814,785.7891 C1471.9814,775.7891 1489.9814,775.7891 1489.9814,775.7891 C1489.9814,775.7891 1507.9814,775.7891 1507.9814,785.7891 L1507.9814,811.7891 C1507.9814,821.7891 1489.9814,821.7891 1489.9814,821.7891 C1489.9814,821.7891 1471.9814,821.7891 1471.9814,811.7891 L1471.9814,785.7891" fill="#E2E2F0" style="stroke:#181818;stroke-width:0.5;"/><path d="M1471.9814,785.7891 C1471.9814,795.7891 1489.9814,795.7891 1489.9814,795.7891 C1489.9814,795.7891 1507.9814,795.7891 1507.9814,785.7891" fill="none" style="stroke:#181818;stroke-width:0.5;"/></g><g class="message" data-entity-1="part1" data-entity-2="part2" id="msg1"><polygon fill="#181818" points="361.5928,127.3125,371.5928,131.3125,361.5928,135.3125,365.5928,131.3125" style="stroke:#181818;stroke-width:1;"/><line style="stroke:#181818;stroke-width:1;" x1="42.8413" x2="367.5928" y1="131.3125" y2="131.3125"/><text fill="#000000" font-family="sans-serif" font-size="13" font-weight="bold" lengthAdjust="spacing" textLength="7.23" x="54.8413" y="118.2803">1</text><text fill="#000000" font-family="sans-serif" font-size="13" lengthAdjust="spacing" textLength="176.2808" x="125.6917" y="110.1045">PATCH /matchs/{fixture}/score</text><text fill="#000000" font-family="sans-serif" font-size="13" lengthAdjust="spacing" textLength="295.5215" x="66.0713" y="126.4561">(match_id, maison_id, exterieur_id, score1, score2)</text></g><g class="message" data-entity-1="part2" data-entity-2="part3" id="msg2"><polygon fill="#181818" points="522.8682,157.6641,532.8682,161.6641,522.8682,165.6641,526.8682,161.6641" style="stroke:#181818;stroke-width:1;"/><line style="stroke:#181818;stroke-width:1;" x1="373.5928" x2="528.8682" y1="161.6641" y2="161.6641"/><text fill="#000000" font-family="sans-serif" font-size="13" font-weight="bold" lengthAdjust="spacing" textLength="7.23" x="405.2673" y="156.8076">2</text><text fill="#000000" font-family="sans-serif" font-size="13" lengthAdjust="spacing" textLength="86.6963" x="416.4973" y="156.8076">verifier session</text></g><g class="message" data-entity-1="part3" data-entity-2="part2" id="msg3"><polygon fill="#181818" points="384.5928,188.0156,374.5928,192.0156,384.5928,196.0156,380.5928,192.0156" style="stroke:#181818;stroke-width:1;"/><line style="stroke:#181818;stroke-width:1;stroke-dasharray:2,2;" x1="378.5928" x2="533.8682" y1="192.0156" y2="192.0156"/><text fill="#000000" font-family="sans-serif" font-size="13" font-weight="bold" lengthAdjust="spacing" textLength="7.23" x="388.9951" y="187.1592">3</text><text fill="#000000" font-family="sans-serif" font-size="13" lengthAdjust="spacing" textLength="119.2407" x="400.2251" y="187.1592">utilisateur authentifie</text></g><g class="message" data-entity-1="part2" data-entity-2="part4" id="msg4"><polygon fill="#181818" points="695.0332,218.3672,705.0332,222.3672,695.0332,226.3672,699.0332,222.3672" style="stroke:#181818;stroke-width:1;"/><line style="stroke:#181818;stroke-width:1;" x1="373.5928" x2="701.0332" y1="222.3672" y2="222.3672"/><text fill="#000000" font-family="sans-serif" font-size="13" font-weight="bold" lengthAdjust="spacing" textLength="7.23" x="483.0408" y="217.5107">4</text><text fill="#000000" font-family="sans-serif" font-size="13" lengthAdjust="spacing" textLength="103.3145" x="494.2708" y="217.5107">verifier role admin</text></g><path d="M10,237.3672 L70.1709,237.3672 L70.1709,245.7188 L60.1709,255.7188 L10,255.7188 L10,237.3672" fill="#EEEEEE" style="stroke:#000000;stroke-width:1.5;"/><rect fill="none" height="504.8125" style="stroke:#000000;stroke-width:1.5;" width="1516.3193" x="10" y="237.3672"/><text fill="#000000" font-family="sans-serif" font-size="13" font-weight="bold" lengthAdjust="spacing" textLength="15.1709" x="25" y="251.8623">alt</text><text fill="#000000" font-family="sans-serif" font-size="11" font-weight="bold" lengthAdjust="spacing" textLength="76.0923" x="85.1709" y="250.7861">[role != admin]</text><g class="message" data-entity-1="part4" data-entity-2="part1" id="msg5"><polygon fill="#181818" points="53.8413,274.0703,43.8413,278.0703,53.8413,282.0703,49.8413,278.0703" style="stroke:#181818;stroke-width:1;"/><line style="stroke:#181818;stroke-width:1;stroke-dasharray:2,2;" x1="47.8413" x2="706.0332" y1="278.0703" y2="278.0703"/><text fill="#000000" font-family="sans-serif" font-size="13" font-weight="bold" lengthAdjust="spacing" textLength="7.23" x="339.7009" y="273.2139">5</text><text fill="#000000" font-family="sans-serif" font-size="13" lengthAdjust="spacing" textLength="59.2427" x="350.9309" y="273.2139">HTTP 403</text></g><line style="stroke:#000000;stroke-width:1;stroke-dasharray:2,2;" x1="10" x2="1526.3193" y1="287.0703" y2="287.0703"/><text fill="#000000" font-family="sans-serif" font-size="11" font-weight="bold" lengthAdjust="spacing" textLength="62.9492" x="15" y="298.4893">[role admin]</text><g class="message" data-entity-1="part4" data-entity-2="part2" id="msg6"><polygon fill="#181818" points="384.5928,320.2578,374.5928,324.2578,384.5928,328.2578,380.5928,324.2578" style="stroke:#181818;stroke-width:1;"/><line style="stroke:#181818;stroke-width:1;stroke-dasharray:2,2;" x1="378.5928" x2="706.0332" y1="324.2578" y2="324.2578"/><text fill="#000000" font-family="sans-serif" font-size="13" font-weight="bold" lengthAdjust="spacing" textLength="7.23" x="525.3066" y="319.4014">6</text><text fill="#000000" font-family="sans-serif" font-size="13" lengthAdjust="spacing" textLength="18.7827" x="536.5366" y="319.4014">OK</text></g><g class="message" data-entity-1="part2" data-entity-2="part5" id="msg7"><polygon fill="#181818" points="885.874,350.6094,895.874,354.6094,885.874,358.6094,889.874,354.6094" style="stroke:#181818;stroke-width:1;"/><line style="stroke:#181818;stroke-width:1;" x1="373.5928" x2="891.874" y1="354.6094" y2="354.6094"/><text fill="#000000" font-family="sans-serif" font-size="13" font-weight="bold" lengthAdjust="spacing" textLength="7.23" x="577.1821" y="349.7529">7</text><text fill="#000000" font-family="sans-serif" font-size="13" lengthAdjust="spacing" textLength="105.8726" x="588.4121" y="349.7529">autorize + validate</text></g><g class="message" data-entity-1="part5" data-entity-2="part5" id="msg8"><line style="stroke:#181818;stroke-width:1;" x1="897.874" x2="939.874" y1="384.9609" y2="384.9609"/><line style="stroke:#181818;stroke-width:1;" x1="939.874" x2="939.874" y1="384.9609" y2="397.9609"/><line style="stroke:#181818;stroke-width:1;" x1="898.874" x2="939.874" y1="397.9609" y2="397.9609"/><polygon fill="#181818" points="908.874,393.9609,898.874,397.9609,908.874,401.9609,904.874,397.9609" style="stroke:#181818;stroke-width:1;"/><text fill="#000000" font-family="sans-serif" font-size="13" font-weight="bold" lengthAdjust="spacing" textLength="7.23" x="904.874" y="380.1045">8</text><text fill="#000000" font-family="sans-serif" font-size="13" lengthAdjust="spacing" textLength="36.8354" x="916.104" y="380.1045">rules()</text></g><g class="message" data-entity-1="part5" data-entity-2="part8" id="msg9"><polygon fill="#181818" points="1477.9814,424.3125,1487.9814,428.3125,1477.9814,432.3125,1481.9814,428.3125" style="stroke:#181818;stroke-width:1;"/><line style="stroke:#181818;stroke-width:1;" x1="897.874" x2="1483.9814" y1="428.3125" y2="428.3125"/><text fill="#000000" font-family="sans-serif" font-size="13" font-weight="bold" lengthAdjust="spacing" textLength="7.23" x="1094.9197" y="423.4561">9</text><text fill="#000000" font-family="sans-serif" font-size="13" lengthAdjust="spacing" textLength="186.7861" x="1106.1497" y="423.4561">verifier equipes exists + different</text></g><g class="message" data-entity-1="part5" data-entity-2="part8" id="msg10"><polygon fill="#181818" points="1477.9814,471.0156,1487.9814,475.0156,1477.9814,479.0156,1481.9814,475.0156" style="stroke:#181818;stroke-width:1;"/><line style="stroke:#181818;stroke-width:1;" x1="897.874" x2="1483.9814" y1="475.0156" y2="475.0156"/><text fill="#000000" font-family="sans-serif" font-size="13" font-weight="bold" lengthAdjust="spacing" textLength="14.46" x="1073.7629" y="461.9834">10</text><text fill="#000000" font-family="sans-serif" font-size="13" lengthAdjust="spacing" textLength="164.0107" x="1121.1523" y="453.8076">verifier fixture cible et unicite</text><text fill="#000000" font-family="sans-serif" font-size="13" lengthAdjust="spacing" textLength="221.8696" x="1092.2229" y="470.1592">(match championnat/equipe1/equipe2)</text></g><g class="message" data-entity-1="part8" data-entity-2="part5" id="msg11"><polygon fill="#181818" points="908.874,501.3672,898.874,505.3672,908.874,509.3672,904.874,505.3672" style="stroke:#181818;stroke-width:1;"/><line style="stroke:#181818;stroke-width:1;stroke-dasharray:2,2;" x1="902.874" x2="1488.9814" y1="505.3672" y2="505.3672"/><text fill="#000000" font-family="sans-serif" font-size="13" font-weight="bold" lengthAdjust="spacing" textLength="14.46" x="1146.0374" y="500.5107">11</text><text fill="#000000" font-family="sans-serif" font-size="13" lengthAdjust="spacing" textLength="77.3208" x="1164.4973" y="500.5107">validation OK</text></g><g class="message" data-entity-1="part5" data-entity-2="part2" id="msg12"><polygon fill="#181818" points="384.5928,531.7188,374.5928,535.7188,384.5928,539.7188,380.5928,535.7188" style="stroke:#181818;stroke-width:1;"/><line style="stroke:#181818;stroke-width:1;stroke-dasharray:2,2;" x1="378.5928" x2="896.874" y1="535.7188" y2="535.7188"/><text fill="#000000" font-family="sans-serif" font-size="13" font-weight="bold" lengthAdjust="spacing" textLength="14.46" x="575.9094" y="530.8623">12</text><text fill="#000000" font-family="sans-serif" font-size="13" lengthAdjust="spacing" textLength="101.188" x="594.3694" y="530.8623">donnees validees</text></g><g class="message" data-entity-1="part2" data-entity-2="part6" id="msg13"><polygon fill="#181818" points="1069.3184,562.0703,1079.3184,566.0703,1069.3184,570.0703,1073.3184,566.0703" style="stroke:#181818;stroke-width:1;"/><line style="stroke:#181818;stroke-width:1;" x1="373.5928" x2="1075.3184" y1="566.0703" y2="566.0703"/><text fill="#000000" font-family="sans-serif" font-size="13" font-weight="bold" lengthAdjust="spacing" textLength="14.46" x="634.043" y="561.2139">13</text><text fill="#000000" font-family="sans-serif" font-size="13" lengthAdjust="spacing" textLength="168.3652" x="652.5029" y="561.2139">updateScore(request, fixture)</text></g><g class="message" data-entity-1="part6" data-entity-2="part7" id="msg14"><polygon fill="#181818" points="1293.937,608.7734,1303.937,612.7734,1293.937,616.7734,1297.937,612.7734" style="stroke:#181818;stroke-width:1;"/><line style="stroke:#181818;stroke-width:1;" x1="1081.3184" x2="1299.937" y1="612.7734" y2="612.7734"/><text fill="#000000" font-family="sans-serif" font-size="13" font-weight="bold" lengthAdjust="spacing" textLength="14.46" x="1093.3184" y="599.7412">14</text><text fill="#000000" font-family="sans-serif" font-size="13" lengthAdjust="spacing" textLength="182.1587" x="1111.7783" y="591.5654">update(equipe1_id, equipe2_id,</text><text fill="#000000" font-family="sans-serif" font-size="13" lengthAdjust="spacing" textLength="89.5908" x="1158.0623" y="607.917">score1, score2)</text></g><g class="message" data-entity-1="part7" data-entity-2="part8" id="msg15"><polygon fill="#181818" points="1477.9814,639.125,1487.9814,643.125,1477.9814,647.125,1481.9814,643.125" style="stroke:#181818;stroke-width:1;"/><line style="stroke:#181818;stroke-width:1;" x1="1305.937" x2="1483.9814" y1="643.125" y2="643.125"/><text fill="#000000" font-family="sans-serif" font-size="13" font-weight="bold" lengthAdjust="spacing" textLength="14.46" x="1317.937" y="638.2686">15</text><text fill="#000000" font-family="sans-serif" font-size="13" lengthAdjust="spacing" textLength="141.5845" x="1336.397" y="638.2686">UPDATE matchs SET ...</text></g><g class="message" data-entity-1="part8" data-entity-2="part7" id="msg16"><polygon fill="#181818" points="1316.937,669.4766,1306.937,673.4766,1316.937,677.4766,1312.937,673.4766" style="stroke:#181818;stroke-width:1;"/><line style="stroke:#181818;stroke-width:1;stroke-dasharray:2,2;" x1="1310.937" x2="1488.9814" y1="673.4766" y2="673.4766"/><text fill="#000000" font-family="sans-serif" font-size="13" font-weight="bold" lengthAdjust="spacing" textLength="14.46" x="1365.2493" y="668.6201">16</text><text fill="#000000" font-family="sans-serif" font-size="13" lengthAdjust="spacing" textLength="46.96" x="1383.7092" y="668.6201">success</text></g><g class="message" data-entity-1="part7" data-entity-2="part6" id="msg17"><polygon fill="#181818" points="1092.3184,699.8281,1082.3184,703.8281,1092.3184,707.8281,1088.3184,703.8281" style="stroke:#181818;stroke-width:1;"/><line style="stroke:#181818;stroke-width:1;stroke-dasharray:2,2;" x1="1086.3184" x2="1304.937" y1="703.8281" y2="703.8281"/><text fill="#000000" font-family="sans-serif" font-size="13" font-weight="bold" lengthAdjust="spacing" textLength="14.46" x="1136.7173" y="698.9717">17</text><text fill="#000000" font-family="sans-serif" font-size="13" lengthAdjust="spacing" textLength="95.3608" x="1155.1772" y="698.9717">fixture mis a jour</text></g><g class="message" data-entity-1="part6" data-entity-2="part1" id="msg18"><polygon fill="#181818" points="53.8413,730.1797,43.8413,734.1797,53.8413,738.1797,49.8413,734.1797" style="stroke:#181818;stroke-width:1;"/><line style="stroke:#181818;stroke-width:1;stroke-dasharray:2,2;" x1="47.8413" x2="1080.3184" y1="734.1797" y2="734.1797"/><text fill="#000000" font-family="sans-serif" font-size="13" font-weight="bold" lengthAdjust="spacing" textLength="14.46" x="435.2405" y="729.3232">18</text><text fill="#000000" font-family="sans-serif" font-size="13" lengthAdjust="spacing" textLength="235.2188" x="453.7004" y="729.3232">redirect 302 /matchs?championnat_id=...</text></g><?plantuml-src TLFRRjD047ttLmnzIaIRMtcAL51kLH6r2Bc8bqfeOq-I1NlNxAK44F_ExCMD7SHJnhDdpfmvCs7MI67B7Qf4V-EYOegLi6JAy8nNJ9WbotCk3Z0QDDwdybJdXyty6hzR51ccg3KxuAJW1m4P2aFi2SkCL339IowIwjm0hXwfzXaBM4bBm2jWEePj6BFc22NFym9_C8KUDw5S-la2vpeqW4zY8RHL-5xxtg7EHPU5sofd1k_voH1wvKRHngEtzwisCcKcEywaC4eMHPISpjgOo0ETHI6TAwRhOJ6ToXoBXFgn7TD8Z3_NdnuzO3vD4YyFRjv67yQmd6nc3z0lNL_T_xqF97_wEfDkm8v_-CBpQoWPrrBu44zKoz4g_-MXm_WxwYQ1sZK99exXcT1xJZbDw-DI9E41RXf2hE45rsIJLU0MGdEvcYPRiBP1HoOX-AtG4HGcVB-wYoceAtmV7u_XORDPmfl1RO85kTCWQADhLHy_qCDP0krhxDH9nNyXl8PdLd2tMWBHqmj2sG9rftlEpgSDrRH_Ng4c5xascbXolj-Zee7_Kn2N0XdVaLmqO0KTWtbP3sH7LbRags2c7zY7yNVaHCodVYOlBIecS9ZDzsiCd1CBaZYFeo1fpP_EQ57-cDTksHqLRlcwbkYwfJE7R5vZNTE9si8D1NqkVXAN9mIj-jgGxN8-sImWt2gi5nlezNhd-TejjSqokhP_gE8KjQSbry3WgxGgIZ-VYiASAymCt0v6zJ_aNSDgadxd1A38axy0?></g></svg>